<?xml version="1.0" encoding="utf-8"?>
<!-- Generator: Adobe Illustrator 26.0.3, SVG Export Plug-In . SVG Version: 6.00 Build 0)  -->
<svg version="1.1" id="Layer_1" xmlns="http://www.w3.org/2000/svg" xmlns:xlink="http://www.w3.org/1999/xlink" x="0px" y="0px"
	 viewBox="0 0 1000 1000" enable-background="new 0 0 1000 1000" xml:space="preserve">
<g>
	
		<linearGradient id="Globe_Drop_Shadow_00000088101176426347904990000010818171935868316316_" gradientUnits="userSpaceOnUse" x1="121.5611191" y1="780.3700562" x2="1000" y2="780.3700562">
		<stop  offset="0" style="stop-color:#FFFFFF;stop-opacity:0"/>
		<stop  offset="0.0606533" style="stop-color:#CBCBCB;stop-opacity:0.0881479"/>
		<stop  offset="0.1315722" style="stop-color:#969696;stop-opacity:0.1912149"/>
		<stop  offset="0.2034459" style="stop-color:#686868;stop-opacity:0.2956695"/>
		<stop  offset="0.2747751" style="stop-color:#434343;stop-opacity:0.3993327"/>
		<stop  offset="0.3454855" style="stop-color:#252525;stop-opacity:0.5020967"/>
		<stop  offset="0.4153908" style="stop-color:#111111;stop-opacity:0.6036905"/>
		<stop  offset="0.4841594" style="stop-color:#040404;stop-opacity:0.7036325"/>
		<stop  offset="0.5504685" style="stop-color:#000000;stop-opacity:0.8"/>
		<stop  offset="0.9749604" style="stop-color:#000000;stop-opacity:0.3"/>
	</linearGradient>
	
		<ellipse id="Globe_Drop_Shadow" opacity="0.75" fill="url(#Globe_Drop_Shadow_00000088101176426347904990000010818171935868316316_)" cx="560.7805786" cy="780.3700562" rx="439.2194519" ry="166.2391052"/>
	
		<linearGradient id="SHAPE_00000053503900242025208820000004584390428184523949_" gradientUnits="userSpaceOnUse" x1="129.8961182" y1="175.7521057" x2="759.5813599" y2="805.4373169">
		<stop  offset="7.152558e-08" style="stop-color:#D11A2A"/>
		<stop  offset="0.3794978" style="stop-color:#DA002A"/>
		<stop  offset="0.6590922" style="stop-color:#DA002A"/>
		<stop  offset="0.6866185" style="stop-color:#DA002A"/>
		<stop  offset="0.8317056" style="stop-color:#C50C27"/>
		<stop  offset="1" style="stop-color:#A71E22"/>
	</linearGradient>
	<path id="SHAPE" fill="url(#SHAPE_00000053503900242025208820000004584390428184523949_)" d="M889.477478,490.5947266
		c0,246.1919556-199.116272,445.7700195-444.738739,445.7700195S0,736.7866821,0,490.5947266
		c0-147.1139526,71.0995026-277.5831909,180.735611-358.7693481
		c73.8375549-54.6771088,165.1542816-87.0007172,264.0031128-87.0007172
		C690.3612061,44.8246765,889.477478,244.4027252,889.477478,490.5947266z"/>
	<path fill="none" stroke="#231F20" stroke-miterlimit="10" d="M697.1679688,124.7346268
		c-26.0339966,9.2475204-62.7515869,20.5863266-107.6946411,28.9434891
		c-64.1964111,11.9372864-112.973053,11.8031311-167.5153503,11.6531067
		c-51.67276-0.1421204-96.2846985-0.4893494-155.0299988-11.6531067
		c-35.0159912-6.6543121-63.8706512-15.026535-84.6330872-21.8527222"/>
	<path fill="none" stroke="#231F20" stroke-miterlimit="10" d="M230.1329651,329.5376282
		c-60.9145508-5.2298584-122.6691055-24.2753296-182.4885864-41.5814819"/>
	<path fill="none" stroke="#231F20" stroke-miterlimit="10" d="M510.4851379,337.8869019
		c-77.6222839,0.7049561-156.0030518,3.0856323-233.914856-3.4030762"/>
	<path fill="none" stroke="#231F20" stroke-miterlimit="10" d="M835.0049438,277.2224121
		c-55.3164062,20.4496155-112.682373,35.0164795-170.7990112,44.8022766
		c-16.4257812,2.7657776-32.9142456,5.1546021-49.4445801,7.2000732"/>
	<path fill="none" stroke="#231F20" stroke-miterlimit="10" d="M888.5363159,468.1999817
		c-44.9278564,15.241394-108.2927856,33.9295349-185.8527832,47.7034607
		c-110.7861938,19.6745605-194.9619751,19.4534302-289.087677,19.2061768
		c-89.1736755-0.2342529-166.1622314-0.8065186-267.5412903-19.2061768
		C85.6261444,504.9360657,35.8305435,491.1373291,0,479.8866882"/>
	<path fill="none" stroke="#231F20" stroke-miterlimit="10" d="M787.77948,771.7723999
		c-34.2266235,15.241394-82.4989014,33.9295044-141.585144,47.7034302
		c-84.3983154,19.6745605-148.5245972,19.4534302-220.2308044,19.2061768
		c-67.9336853-0.2342529-126.5845947-0.8065186-203.8164978-19.2061768
		c-46.0351715-10.9673462-83.9701233-24.7661133-111.2663116-36.0167236"/>
	<path fill="none" stroke="#231F20" stroke-miterlimit="10" d="M852.1463623,666.8668213
		c-40.8786621,15.241394-98.5328369,33.9295654-169.1026611,47.7034912
		c-100.8015137,19.6744995-177.3908997,19.4533691-263.0334473,19.2061157
		c-81.1368408-0.2341919-151.1867676-0.8065186-243.4289703-19.2061157
		c-54.9822693-10.9674072-100.2900085-24.7661133-132.8912964-36.0167847"/>
	<path fill="none" stroke="#231F20" stroke-miterlimit="10" d="M882.4694824,566.4190063
		c-44.1786499,15.241333-106.4868774,33.9295044-182.753418,47.7034302
		c-108.9386597,19.6745605-191.7106934,19.4534302-284.2667236,19.2061768
		c-87.6865845-0.2342529-163.3912354-0.8065186-263.0796509-19.2061768
		C92.9489975,603.1550903,43.9838104,589.3563232,8.7507944,578.1057129"/>
	<path fill="none" stroke="#231F20" stroke-miterlimit="10" d="M872.3617554,367.7521362
		c-43.3568726,15.241394-104.5062256,33.9295349-179.354248,47.7034607
		c-106.9124146,19.67453-188.1449585,19.4534302-278.9794617,19.2061768
		c-86.0556335-0.2342529-160.3522186-0.8065491-258.1864624-19.2061768
		c-58.3154907-10.9673767-106.3699417-24.7661133-140.9476318-36.0167542"/>
	<path fill="none" stroke="#231F20" stroke-miterlimit="10" d="M773.5734253,191.5976105
		c-33.6830444,11.7534485-81.1886597,26.1648865-139.3364868,36.7866974
		c-83.0579224,15.1721039-146.1657104,15.0015869-216.7330627,14.8109283
		c-66.8547668-0.1806488-124.5741882-0.6219635-200.5794983-14.8109283
		c-45.3040466-8.4575195-82.6365051-19.0984802-109.499176-27.7744598"/>
	<defs>
		
			<filter id="Adobe_OpacityMaskFilter" filterUnits="userSpaceOnUse" x="74.7284927" y="204.615799" width="265.5618286" height="326.1196899">
			<feColorMatrix  type="matrix" values="1 0 0 0 0  0 1 0 0 0  0 0 1 0 0  0 0 0 1 0"/>
		</filter>
	</defs>
	<mask maskUnits="userSpaceOnUse" x="74.7284927" y="204.615799" width="265.5618286" height="326.1196899" id="SVGID_1_">
		<g filter="url(#Adobe_OpacityMaskFilter)">
			
				<linearGradient id="SVGID_00000025421260588002492300000001856590000668796085_" gradientUnits="userSpaceOnUse" x1="105.2614288" y1="45.7965927" x2="292.848938" y2="501.2352295">
				<stop  offset="0.0412986" style="stop-color:#000000"/>
				<stop  offset="0.0785795" style="stop-color:#222222"/>
				<stop  offset="0.136418" style="stop-color:#505050"/>
				<stop  offset="0.1996936" style="stop-color:#7A7A7A"/>
				<stop  offset="0.2669887" style="stop-color:#9E9E9E"/>
				<stop  offset="0.3394345" style="stop-color:#BCBCBC"/>
				<stop  offset="0.418646" style="stop-color:#D5D5D5"/>
				<stop  offset="0.5073284" style="stop-color:#E8E8E8"/>
				<stop  offset="0.6107858" style="stop-color:#F5F5F5"/>
				<stop  offset="0.7426917" style="stop-color:#FDFDFD"/>
				<stop  offset="1" style="stop-color:#FFFFFF"/>
			</linearGradient>
			
				<rect x="-18.9029808" y="141.7478943" fill="url(#SVGID_00000025421260588002492300000001856590000668796085_)" width="492.5580444" height="401.0548706"/>
		</g>
	</mask>
	<g mask="url(#SVGID_1_)">
		<g id="North_America_SHAPE">
			<g opacity="0.1">
				<path d="M75.7284927,248.0817413c0.9130325-3.8659668,3.1876678-4.6980438,6.9537201-3.175766
					c2.9203033,1.1804199,6.0771255,1.7728882,10.0440292,2.8827972c1.6906586-5.3023987,3.5098801-10.4151459,4.9009781-15.6423645
					c0.6165314-2.3166962,1.500412-3.9533997,3.7816086-4.7658081c0.9567184-0.340744,1.8210831-0.9355469,2.7691727-1.3081512
					c9.3670044-3.6813049,17.0274582-9.5295258,23.0821075-17.6310425c0.9480209-1.2685089,3.0815964-1.9645538,4.788063-2.2929077
					c9.5136261-1.8305664,16.6315918,0.9124298,20.6800842,10.4779053
					c1.6162567,3.8187103,4.3744202,7.2245789,7.0008087,10.5063324c1.1024323,1.3775177,3.1231689,2.2106476,4.8895111,2.8012848
					c1.5262146,0.5103912,3.3029633,0.5536804,4.9349976,0.411499c7.4864502-0.6520081,12.8875732,3.2067108,17.6794586,8.1980133
					c3.701828,3.8558655,8.1382904,5.3808746,13.3522186,5.4075317c3.881958,0.0198517,7.4268036,1.09198,10.6583405,3.5346985
					c3.7070465,2.8021545,9.192749,2.1024628,12.4268494-1.1370544c0.6328125-0.6338654,1.2609406-1.2724762,1.8928833-1.9072571
					c4.904541-4.9261627,8.4610748-5.0552063,13.4572449,0.2033997c2.3350525,2.4577484,4.4563293,3.1226501,7.6611328,2.2279053
					c4.5801544-1.2787933,8.7226105,2.4364929,9.2523651,6.9987183c0.4858856,4.1841888,1.9581757,8.2533112,3.1992035,13.1804047
					c-3.6208191-0.1816711-7.7570801,0.2805481-11.4710999-0.76474c-3.6839752-1.0367737-6.2840881,0.4004822-9.1964569,1.7139893
					c-0.2244568,0.1012573-0.3725281,0.3688049-0.5956573,0.4774475c-5.1050873,2.4857178-4.9929199,6.4903259-4.8602295,11.6820068
					c0.213913,8.3702393,4.0748901,12.8913574,11.098877,16.2010803c6.227005,2.9342041,12.2077942,6.4256897,18.1368408,9.9428406
					c1.717926,1.0191345,3.0438232,2.8562622,4.2667542,4.5263672c2.2192688,3.0307007,4.2264099,6.2174377,6.2865601,9.2861023
					c4.3473206-1.7010803,5.6579895-3.9907227,3.5910034-7.5467529c-2.7297974-4.6963501-2.2920837-9.184906,0.6981812-13.5522461
					c1.5967407-2.3320923,1.3690186-4.3090515-0.6138611-6.4272156c-3.3773193-3.6077576-5.2842102-7.8173523-6.0137329-12.9055176
					c-0.5105591-3.5609131-2.8074036-6.8644409-4.4365845-10.5797119c3.5342407-0.4437256,7.3183899-1.3009033,11.0762329-1.1974792
					c1.4480896,0.0398254,2.8363647,2.2632751,4.0934448,3.6549377c2.5584717,1.3404846,5.8594666-3.0733337,8.3546143,1.2453308
					c1.5840149,2.7416687,3.5988159,5.2332458,5.9637756,8.6135864c1.6330566-1.6317139,3.6761475-2.7731018,4.1524963-4.3809509
					c0.5726929-1.9331055-0.1878052-4.2630615-0.4700317-7.5864868c1.8289185,1.7417297,2.871521,2.8887329,4.0709534,3.8362427
					c1.3744202,1.0857239,2.7627563,2.3779297,4.3659363,2.9043579c3.9951782,1.3118286,7.569458,2.7133789,8.5318298,7.5609131
					c0.1985779,1.0003662,1.9105225,1.8937988,3.1015625,2.4690857c6.8737183,3.320282,13.8004761,6.5302429,21.0256348,9.926239
					c-2.0688782,3.9125366-3.9374695,7.6522522-6.0332642,11.2593384c-0.4997559,0.8601074-1.6808777,1.4776917-2.6804504,1.8648682
					c-5.4676819,2.1178284-11.0263977,4.0091553-16.4325867,6.2696533c-1.202301,0.5026855-2.4738464,2.0549316-2.7524109,3.3342285
					c-0.8519287,3.912262-1.2359009,7.9269714-1.8428955,12.1899414c2.4520569-3.1316528,4.4648438-6.3875427,7.1749268-8.8822937
					c1.4125977-1.300354,4.0500488-1.5897217,6.1426697-1.6142883c0.593689-0.006958,1.2351685,2.5167542,1.8228149,3.8935547
					c1.1608887,2.7198792-0.7627563,6.9367371,3.9812927,7.6470947
					c-2.1545715,10.7865906-14.1441956,15.423584-15.6316833,26.5151062
					c2.5460205,0.9963379,4.6444092,1.8367615,4.7884521-2.0631409c1.7290955,2.3452148,1.4168091,4.5823364-1.3162842,5.0062561
					c-5.4125061,0.8395386-8.4366455,3.5696411-10.3298645,8.6409607c-1.7470398,4.6796875-2.9374695,9.2129517-1.751709,14.1624146
					c0.0847473,0.3536377,0.0110779,0.7453613,0.0110779,0.98172c-1.988739,1.3258362-3.8591614,2.5727539-5.462677,3.6417236
					c1.3646851,2.3918457,3.5079346,4.4460449,3.5343628,6.5272217c0.0679016,5.3434448-3.6759949,9.2108459-7.2601624,12.5145874
					c-3.567627,3.2884827-6.3571472,6.835907-8.3490601,11.2234192c-2.5839844,5.6917725-2.006073,8.5320435,2.3427124,12.7747498
					c1.49823,1.4617004,2.3774109,3.7121887,3.1194763,5.7556458c0.6434021,1.7716064,0.4488525,3.8426208,1.0533752,5.6361084
					c1.5236511,4.5205688-0.1092224,7.9127808-3.6511841,11.1412048c-3.0000916-3.237793-6.4944458-6.1605835-8.8041382-9.8321838
					c-1.3058167-2.0757751-0.8131409-5.3792419-0.8688049-8.1350708c-0.1099548-5.4424744-3.6522217-8.1231995-9.07724-7.4355164
					c-6.0834961,0.7712097-12.2436523,0.9342651-19.014679,1.4069214c-1.0162048,6.0205383-6.061615,5.5167236-11.0811768,4.1557617
					c-7.6179352-2.0654602-12.9749908,2.4476318-19.0071259,5.6109924
					c-3.9675751,2.0806885-5.2890625,4.8230286-5.4495544,9.0324707c-0.2680664,7.030304-1.1546631,14.0372009-1.4103699,21.0674744
					c-0.0702667,1.9315796,0.7370148,4.2393494,1.9016418,5.8071594c3.4281921,4.6151428,7.1359253,9.037323,10.9745789,13.3184814
					c0.8829193,0.9847717,2.6940155,1.2930908,4.1421204,1.5515137c0.935318,0.1669312,1.980484-0.4411011,2.9882812-0.5009155
					c6.8988647-0.4091797,11.8318634-2.8893738,12.2431793-10.8100281c0.0526123-1.0132751,1.4773865-2.4346619,2.5677338-2.8280334
					c3.9505005-1.4254456,8.0277863-2.4987183,12.0619049-3.6889954c0.4781494-0.1410522,0.9850769-0.184021,1.7677002-0.3241882
					c0.6418457,3.6383362,1.2406921,6.9517517-2.1621704,9.6920776c-1.0490417,0.8447571-1.714386,2.4530334-2.0600586,3.8360596
					c-0.9519348,3.8088989-1.6416321,7.6836548-2.4989014,11.8419495c5.3805542,2.186615,11.7626038,2.1941223,18.1418152-0.3764648
					c2.2349548-0.9006042,3.6601257-0.2988892,5.0727234,1.7322388c3.8660889,5.55896,3.2969971,9.4662781-2.5211792,14.47995
					c2.7176208,5.3275757,7.381958,8.2548828,12.8104553,10.0258179c1.0837097,0.3535156,2.8368225-0.1945801,3.8366394-0.932373
					c6.0787354-4.4857178,12.7497559-2.5943604,19.2725525-2.381958c0.1089783,0.335144,0.217926,0.6702271,0.3268738,1.0053711
					c-2.4996338,0.9527588-5.0168457,2.7244263-7.4949646,2.6712036c-3.9570618-0.085144-6.911499,1.0769653-9.3965149,3.9448853
					c-1.8656311,2.1530762-3.9024353,2.8691406-6.7374268,1.6060181c-2.5436096-1.1333008-5.3186035-1.767334-8.0203552-2.5170898
					c-7.898407-2.1917725-15.0462646-5.3236694-18.8506165-13.4091797
					c-0.4712524-1.0014648-2.3745117-1.4647217-3.7070618-1.8729248c-0.9353027-0.286499-2.0437622-0.171936-3.0484924-0.0377808
					c-9.4748993,1.2647705-17.8005219-0.8209229-24.7386169-7.8369446
					c-1.1366119-1.1492615-3.4559326-1.6429749-5.2009735-1.5861511
					c-14.5281525,0.4732056-26.5344086-6.0584106-38.0968781-13.682373
					c-4.040329-2.6641235-7.5792542-6.0809631-11.4840851-8.9679871c-1.8661346-1.3797302-2.9083862-2.9436035-2.1723175-5.1590881
					c2.5088043-7.5510864-0.8168182-13.0810242-5.5943756-18.5536499
					c-9.4736481-10.8519897-17.4097595-22.7003479-21.4252319-36.7937012
					c-0.9474792-3.3254395-3.5168915-1.9597168-6.5968628-2.2222595c1.2721558,4.3285522,1.854538,8.4141846,3.6139984,11.9033508
					c5.3377838,10.5853577,11.131073,20.9398499,16.9464264,31.7553101
					c-2.0574341,0.9058838-3.4106445,1.5017395-4.911087,2.1624146c-3.8576813-6.8792725-6.5988007-14.5343018-11.6379089-20.098053
					c-7.3654175-8.1323242-8.3332977-18.0780029-9.6471558-27.613739
					c-1.2151794-8.8193665-5.0905609-14.8998718-11.6727066-19.9082947
					c-2.2567368-1.7171631-3.1413498-3.8239136-3.2577362-6.5427246c-0.3394165-7.928772-0.8718185-15.850769-1.0924072-23.7820129
					c-0.0460968-1.6575317,0.5151062-3.6407166,1.4848709-4.968689c7.2066345-9.8684082,8.267395-21.6186218,9.7263641-33.0713501
					c0.4930267-3.8702087-1.8947449-8.0939636-2.8738556-12.1782837c-0.2520294-1.0513916-0.6419983-2.5491028-0.1408691-3.2265015
					c4.0159454-5.4284973,3.2631378-11.335144,1.7932281-17.2084961c-1.389328-5.5513306,0.013855-10.7073669,1.9329376-15.6767578
					c2.9564056-7.6555481,0.7783356-13.7867126-4.4962311-19.4172668
					c-5.0687637-5.4108124-9.8367844-11.2673645-17.7691193-12.4293671
					c-1.4607086-0.2139893-3.1714325,0.482132-4.5999069,1.1286163c-0.9873047,0.4468231-1.7715454,1.4609222-2.5019531,2.3419342
					c-3.5964508,4.33815-7.6486206,5.8275299-12.8764038,2.6682739c-1.1778336-0.7117767-3.0671463-0.9414978-4.3997726-0.5691223
					C81.1770096,254.0832214,77.7767334,252.745224,75.7284927,248.0817413z M268.2560425,333.3552856
					c-1.7292786-0.1375122-3.5454102,0.0113831-5.1665039-0.4827271c-2.1785278-0.6640015-4.1300659-2.0970764-6.3156433-2.7127991
					c-4.0401459-1.1381531-8.2732239-1.6416931-12.2383575-2.9715576c-1.9990845-0.6704712-4.3841248-2.2001038-5.2129364-3.9856262
					c-2.5496216-5.4929504-7.6148071-7.5344849-12.5792084-10.8188782c-0.2165985,4.7817993-3.249649,6.7194824-6.5027313,8.7260437
					c-1.2749329,0.7863464-1.7989807,2.7959595-2.8810577,4.6109009c4.8191223,0.4595642,8.6923218,0.4595642,12.3818359,1.2846985
					c3.6878204,0.8247986,7.4312744-2.5486755,11.4963379,0.0462341c-3.7758331,2.1987-7.0075378,3.9981689-10.1396637,5.9576416
					c-0.8740387,0.546814-2.0531769,1.5528259-2.0714264,2.3710632c-0.1200867,5.3883057,0.0389557,10.7828369,0.1041412,15.9504395
					c4.6346741,1.0114441,6.1179199-0.4644165,5.8375702-3.9625854c-0.1221466-1.5240173,0.1377106-3.1772766-0.3677368-4.5534668
					c-1.490036-4.0567017-0.693634-7.0953979,3.214447-9.1713562c0.5522461-0.293396,0.9306488-0.9956055,1.4943848-1.1721802
					c1.6661377-0.5218201,3.3848419-0.8750305,5.0829926-1.29422c-0.0422821,1.8200378,0.1023712,3.6685181-0.1685028,5.4537354
					c-0.461853,3.0435791-1.1846313,6.0473938-1.7977905,9.0679016c0.3859253,0.372406,0.7718811,0.7447815,1.1578064,1.1171875
					c1.9974213-0.5829773,4.4540863-0.619873,5.9083862-1.8486938c4.8573914-4.1043091,1.7424622-9.0724487,0.6309814-13.7176208
					c3.5103302-0.5507507,9.5010834,1.2744751,10.2305145,3.0041809c1.8275757,4.3338623-1.0604248,9.0315552-5.7500305,9.7860413
					c-1.5093384,0.2428894-3.0148621,1.2044678-4.2665558,2.170166c-1.3059998,1.0075684-3.5692139,2.3825989-1.6177979,4.1588745
					c0.8801422,0.8011475,3.8720093,0.5857544,4.883316-0.3180542c3.0747986-2.7478027,5.5780945-6.1268921,8.4585571-9.1101379
					c1.1170959-1.1569824,2.5738525-2.0551758,4.013031-2.8076782c1.2645264-0.6612244,2.7206421-0.9542236,4.0921326-1.4097595
					c-0.6723938-1.15802-1.3447571-2.3160095-2.02948-3.4854736c4.2762451-1.1965332,4.9751587-4.4483337,4.9501953-8.8611755
					C271.2731628,327.7479553,269.7645874,330.5516052,268.2560425,333.3552856z"/>
			</g>
			<g>
				<g>
					<path fill="#FFD357" d="M74.7284927,247.0817413c0.9130325-3.8659668,3.1876678-4.6980438,6.9537201-3.175766
						c2.9203033,1.1804199,6.0771255,1.7728882,10.0440292,2.8827972
						c1.6906586-5.3023987,3.5098801-10.4151459,4.9009781-15.6423645c0.6165314-2.3166962,1.500412-3.9533997,3.7816086-4.7658081
						c0.9567184-0.340744,1.8210831-0.9355469,2.7691727-1.3081512c9.3670044-3.6813049,17.0274582-9.5295258,23.0821075-17.6310425
						c0.9480209-1.2685089,3.0815964-1.9645538,4.788063-2.2929077c9.5136261-1.8305664,16.6315918,0.9124298,20.6800842,10.4779053
						c1.6162567,3.8187103,4.3744202,7.2245789,7.0008087,10.5063324c1.1024323,1.3775177,3.1231689,2.2106476,4.8895111,2.8012848
						c1.5262146,0.5103912,3.3029633,0.5536804,4.9349976,0.411499c7.4864502-0.6520081,12.8875732,3.2067108,17.6794586,8.1980133
						c3.701828,3.8558655,8.1382904,5.3808746,13.3522186,5.4075317c3.881958,0.0198517,7.4268036,1.09198,10.6583405,3.5346985
						c3.7070465,2.8021545,9.192749,2.1024628,12.4268494-1.1370544c0.6328125-0.6338654,1.2609406-1.2724762,1.8928833-1.9072571
						c4.904541-4.9261627,8.4610748-5.0552063,13.4572449,0.2033997c2.3350525,2.4577484,4.4563293,3.1226501,7.6611328,2.2279053
						c4.5801544-1.2787933,8.7226105,2.4364929,9.2523651,6.9987183c0.4858704,4.1841888,1.9581757,8.2533112,3.1992035,13.1804047
						c-3.6208191-0.1816711-7.7570801,0.2805481-11.4710999-0.76474c-3.6839752-1.0367737-6.2840881,0.4004822-9.1964569,1.7139893
						c-0.2244568,0.1012573-0.3725281,0.3688049-0.5956573,0.4774475
						c-5.1050873,2.4857178-4.9929199,6.4903259-4.8602295,11.6820068
						c0.213913,8.3702393,4.0748901,12.8913574,11.098877,16.2010803c6.227005,2.9342041,12.2077789,6.4256897,18.1368408,9.9428406
						c1.717926,1.0191345,3.0438232,2.8562622,4.2667542,4.5263672c2.2192688,3.0307007,4.2264099,6.2174377,6.2865601,9.2861023
						c4.3473206-1.7010803,5.6579895-3.9907227,3.5910034-7.5467529c-2.7297974-4.6963501-2.2920837-9.184906,0.6981812-13.5522461
						c1.5967407-2.3320923,1.3690186-4.3090515-0.6138611-6.4272156c-3.3773193-3.6077576-5.2842102-7.8173523-6.0137329-12.9055176
						c-0.5105591-3.5609131-2.8074036-6.8644409-4.4365845-10.5797119
						c3.5342407-0.4437256,7.3183899-1.3009033,11.0762329-1.1974792c1.4480896,0.0398254,2.8363647,2.2632751,4.0934448,3.6549377
						c2.5584717,1.3404846,5.8594666-3.0733337,8.3546143,1.2453308c1.5840149,2.7416687,3.5988159,5.2332458,5.9637756,8.6135864
						c1.6330566-1.6317139,3.6761475-2.7731018,4.1524963-4.3809509c0.5726929-1.9331055-0.1878052-4.2630615-0.4700317-7.5864868
						c1.8289185,1.7417297,2.871521,2.8887329,4.0709534,3.8362427c1.3744202,1.0857239,2.7627563,2.3779297,4.3659363,2.9043579
						c3.9951782,1.3118286,7.569458,2.7133789,8.5318298,7.5609131c0.1985779,1.0003662,1.9105225,1.8937988,3.1015625,2.4690857
						c6.8737183,3.320282,13.8004761,6.5302429,21.0256348,9.926239c-2.0688782,3.9125366-3.9374695,7.6522522-6.0332642,11.2593384
						c-0.4997559,0.8601074-1.6808777,1.4776917-2.6804504,1.8648682
						c-5.4676819,2.1178284-11.0263977,4.0091553-16.4325867,6.2696533
						c-1.202301,0.5026855-2.4738464,2.0549316-2.7524109,3.3342285c-0.8519287,3.912262-1.2359009,7.9269714-1.8428955,12.1899414
						c2.4520569-3.1316528,4.4648438-6.3875427,7.1749268-8.8822937c1.4125977-1.300354,4.0500488-1.5897217,6.1426697-1.6142883
						c0.593689-0.006958,1.2351685,2.5167542,1.8228149,3.8935547c1.1608887,2.7198792-0.7627563,6.9367371,3.9812927,7.6470947
						c-2.1545715,10.7865906-14.1441956,15.423584-15.6316833,26.5151062
						c2.5460205,0.9963379,4.6444092,1.8367615,4.7884521-2.0631409c1.7290955,2.3452148,1.4168091,4.5823364-1.3162842,5.0062561
						c-5.4125061,0.8395386-8.4366455,3.5696411-10.3298645,8.6409607
						c-1.7470398,4.6796875-2.9374695,9.2129517-1.751709,14.1624146c0.0847473,0.3536377,0.0110779,0.7453613,0.0110779,0.98172
						c-1.988739,1.3258362-3.8591614,2.5727539-5.462677,3.6417236c1.3646851,2.3918457,3.5079346,4.4460449,3.5343628,6.5272217
						c0.0679016,5.3434448-3.6759949,9.2108459-7.2601624,12.5145874c-3.567627,3.2884827-6.3571472,6.835907-8.3490601,11.2234192
						c-2.5839844,5.6917725-2.006073,8.5320435,2.3427124,12.7747498c1.49823,1.4617004,2.3774109,3.7121887,3.1194763,5.7556458
						c0.6434021,1.7716064,0.4488525,3.8426208,1.0533752,5.6361084c1.5236511,4.5205688-0.1092224,7.9127808-3.6511841,11.1412048
						c-3.0000916-3.237793-6.4944458-6.1605835-8.8041382-9.8321838c-1.3058167-2.0757751-0.8131409-5.3792419-0.8688049-8.1350708
						c-0.1099548-5.4424744-3.6522217-8.1231995-9.07724-7.4355164c-6.0834961,0.7712097-12.2436523,0.9342651-19.014679,1.4069214
						c-1.0162048,6.0205383-6.061615,5.5167236-11.0811768,4.1557617
						c-7.6179352-2.0654602-12.9749908,2.4476318-19.0071259,5.6109924
						c-3.9675751,2.0806885-5.2890625,4.8230286-5.4495544,9.0324707
						c-0.2680664,7.030304-1.1546631,14.0372009-1.4103699,21.0674744
						c-0.0702667,1.9315796,0.7370148,4.2393494,1.9016418,5.8071594c3.4281921,4.6151428,7.1359253,9.037323,10.9745789,13.3184814
						c0.8829193,0.9847717,2.6940155,1.2930908,4.1421204,1.5515137c0.935318,0.1669312,1.980484-0.4411011,2.9882812-0.5009155
						c6.8988647-0.4091797,11.8318634-2.8893738,12.2431793-10.8100281
						c0.0526123-1.0132751,1.4773865-2.4346619,2.5677338-2.8280334c3.9505005-1.4254456,8.0277863-2.4987183,12.0619049-3.6889954
						c0.4781494-0.1410522,0.9850769-0.184021,1.7677002-0.3241882c0.6418457,3.6383362,1.2406921,6.9517517-2.1621704,9.6920776
						c-1.0490417,0.8447571-1.714386,2.4530334-2.0600586,3.8360596c-0.9519348,3.8088989-1.6416321,7.6836548-2.4989014,11.8419495
						c5.3805542,2.186615,11.7626038,2.1941223,18.1418152-0.3764648c2.2349548-0.9006042,3.6601257-0.2988892,5.0727234,1.7322388
						c3.8660889,5.55896,3.2969971,9.4662781-2.5211792,14.47995c2.7176208,5.3275757,7.381958,8.2548828,12.8104553,10.0258179
						c1.0837097,0.3535156,2.8368225-0.1945801,3.8366394-0.932373c6.0787354-4.4857178,12.7497559-2.5943604,19.2725525-2.381958
						c0.1089783,0.335144,0.217926,0.6702271,0.3268738,1.0053711c-2.4996338,0.9527588-5.0168457,2.7244263-7.4949646,2.6712036
						c-3.9570618-0.085144-6.911499,1.0769653-9.3965149,3.9448853c-1.8656311,2.1530762-3.9024353,2.8691406-6.7374268,1.6060181
						c-2.5436096-1.1333008-5.3186035-1.767334-8.0203552-2.5170898
						c-7.898407-2.1917725-15.0462646-5.3236694-18.8506165-13.4091797
						c-0.4712524-1.0014648-2.3745117-1.4647522-3.7070618-1.8729553c-0.9353027-0.2864685-2.0437622-0.171936-3.0484924-0.0377808
						c-9.4748993,1.264801-17.8005219-0.8208923-24.7386169-7.8369141
						c-1.1366119-1.1492615-3.4559326-1.6429749-5.2009735-1.5861511
						c-14.5281525,0.4732056-26.5344086-6.0584106-38.0968781-13.682373
						c-4.040329-2.6641235-7.5792542-6.0809631-11.4840851-8.9679871c-1.8661346-1.3797302-2.9083862-2.9436035-2.1723175-5.1590881
						c2.5088043-7.5510864-0.8168182-13.0810242-5.5943756-18.5536499
						c-9.4736481-10.8519897-17.4097595-22.7003479-21.4252319-36.7937012
						c-0.9474792-3.3254395-3.5168915-1.9597168-6.5968628-2.2222595c1.2721558,4.3285522,1.854538,8.4141846,3.6139984,11.9033508
						c5.3377838,10.5853577,11.131073,20.9398499,16.9464264,31.7553101
						c-2.0574341,0.9058838-3.4106445,1.5017395-4.911087,2.1624146
						c-3.8576813-6.8792725-6.5988007-14.5343018-11.6379089-20.098053
						c-7.3654175-8.1323242-8.3332977-18.0780029-9.6471558-27.613739
						c-1.2151794-8.8193665-5.0905609-14.8998718-11.6727066-19.9082947
						c-2.2567368-1.7171631-3.1413498-3.8239136-3.2577362-6.5427246c-0.3394165-7.928772-0.8718185-15.850769-1.0924072-23.7820129
						c-0.0460968-1.6575317,0.5151062-3.6407166,1.4848709-4.968689c7.2066345-9.8684082,8.267395-21.6186218,9.7263641-33.0713501
						c0.4930267-3.8702087-1.8947449-8.0939636-2.8738556-12.1782837c-0.252037-1.0513916-0.6419983-2.5491028-0.1408691-3.2265015
						c4.0159454-5.4284973,3.2631378-11.335144,1.7932281-17.2084961c-1.389328-5.5513306,0.013855-10.7073669,1.9329376-15.6767578
						c2.9564056-7.6555481,0.7783356-13.7867126-4.4962387-19.4172668
						c-5.0687561-5.4108124-9.8367767-11.2673645-17.7691116-12.4293671
						c-1.4607086-0.2139893-3.1714325,0.482132-4.5999069,1.1286163c-0.9873047,0.4468231-1.7715454,1.4609222-2.5019531,2.3419342
						c-3.5964508,4.33815-7.6486206,5.8275299-12.8764038,2.6682739c-1.1778336-0.7117767-3.0671463-0.9414978-4.3997726-0.5691223
						C80.1770096,253.0832214,76.7767334,251.745224,74.7284927,247.0817413z M267.2560425,332.3552856
						c-1.7292786-0.1375122-3.5454102,0.0113831-5.1665039-0.4827271c-2.1785278-0.6640015-4.1300659-2.0970764-6.3156281-2.7127991
						c-4.0401611-1.1381531-8.2732391-1.6416931-12.2383728-2.9715576
						c-1.9990845-0.6704712-4.3841248-2.2001038-5.2129364-3.9856262
						c-2.5496216-5.4929504-7.6148071-7.5344849-12.5792084-10.8188782
						c-0.2165985,4.7817993-3.249649,6.7194824-6.5027313,8.7260437c-1.2749329,0.7863464-1.7989807,2.7959595-2.8810577,4.6109009
						c4.8191223,0.4595642,8.6923218,0.4595642,12.3818359,1.2846985c3.6878204,0.8247986,7.4312744-2.5486755,11.4963379,0.0462341
						c-3.7758331,2.1987-7.0075378,3.9981689-10.1396637,5.9576416c-0.8740387,0.546814-2.0531769,1.5528259-2.0714264,2.3710632
						c-0.1200867,5.3883057,0.0389557,10.7828369,0.1041412,15.9504395
						c4.6346741,1.0114441,6.1179199-0.4644165,5.8375702-3.9625854c-0.1221466-1.5240173,0.1377106-3.1772766-0.3677368-4.5534668
						c-1.490036-4.0567017-0.693634-7.0953979,3.214447-9.1713562c0.5522461-0.293396,0.9306488-0.9956055,1.4943848-1.1721802
						c1.6661377-0.5218201,3.3848419-0.8750305,5.0829926-1.29422c-0.0422821,1.8200378,0.1023712,3.6685181-0.1685028,5.4537354
						c-0.461853,3.0435791-1.1846313,6.0473938-1.7977905,9.0679016c0.3859253,0.372406,0.7718811,0.7447815,1.1578064,1.1171875
						c1.9974213-0.5829773,4.4540863-0.619873,5.9083862-1.8486938c4.8573914-4.1043091,1.7424622-9.0724487,0.6309814-13.7176208
						c3.5103302-0.5507507,9.5010834,1.2744751,10.2305145,3.0041809c1.8275757,4.3338623-1.0604248,9.0315552-5.7500305,9.7860413
						c-1.5093384,0.2428894-3.0148621,1.2044678-4.2665558,2.170166c-1.3059998,1.0075684-3.5692139,2.3825989-1.6177979,4.1588745
						c0.8801422,0.8011475,3.8720093,0.5857544,4.883316-0.3180542c3.0747833-2.7478027,5.5780945-6.1268921,8.4585571-9.1101379
						c1.1170959-1.1569824,2.5738525-2.0551758,4.013031-2.8076782c1.2645264-0.6612244,2.7206421-0.9542236,4.0921326-1.4097595
						c-0.6723938-1.15802-1.3447571-2.3160095-2.02948-3.4854736c4.2762451-1.1965332,4.9751587-4.4483337,4.9501953-8.8611755
						C270.2731628,326.7479553,268.7645874,329.5516052,267.2560425,332.3552856z"/>
				</g>
			</g>
		</g>
		<g>
			<text transform="matrix(0.99769 0 0 1 137.8789062 391.3398438)" font-family="'MyriadPro-Regular'" font-size="24px">North America </text>
		</g>
	</g>
	<g id="South_America_SHAPE">
		<g opacity="0.1">
			<path d="M420.917572,569.2678833c12.1409302,1.8672485,21.4474487,9.2042236,31.8424377,14.1879272
				c2.5603943,1.2275391,5.5548706,2.1078491,8.355957,2.1248169c3.4189148,0.020813,5.7992249,1.1885376,8.1781006,3.4788818
				c3.5933533,3.4597778,6.6807861,7.8317261,12.4272156,8.1599731c0.5905151,0.0336914,1.212677,1.2630615,1.6230164,2.0419922
				c0.2384644,0.4526367-0.001709,1.1323853,0.1189575,1.6776123c2.2651978,10.2362061-1.0744934,18.4741211-8.9906006,24.9863281
				c-8.2603455,6.7954712-11.1095886,15.8956909-11.4723816,26.1519165
				c-0.1344604,3.8027344-1.368927,7.0385132-4.4875793,9.6072388c-1.4142456,1.164917-2.5979309,3.1254272-2.9898682,4.9215088
				c-0.9664612,4.4291992-3.437439,6.8633423-7.6291199,8.5397339c-8.2558594,3.3017578-16.2512817,7.2525635-24.4412537,10.729248
				c-2.183136,0.9266968-3.190033,2.0978394-2.8755493,4.4157104c1.1085205,8.1714478-2.6889648,14.0878296-8.5608215,19.1847534
				c-3.7389526,3.2456055-7.2288513,6.7792969-10.8388977,10.1748047
				c-4.8199158,4.5333862-9.1457825,10.0008545-17.713501,8.1893311c1.6246338,6.2269897-1.3235168,9.9662476-5.2985229,12.4869385
				c-3.1012878,1.9665527-6.9422607,2.9007568-10.5700073,3.8504028c-3.045929,0.7973022-5.0860901,2.2966309-6.8804321,4.9503784
				c-4.6452942,6.8701782-9.6828003,13.473938-14.7814941,20.4833374c2.5036926,2.0690308,2.6737976,4.447937-0.526947,7.6339722
				c-4.3458252,4.3259888-4.102478,7.9733887,0.0594482,14.2747192c1.8795471,2.8459473,3.6381531,5.4988403,0.6272278,9.1326294
				c-1.5932922-0.4289551-3.6648254-0.5543213-5.2657776-1.4894409
				c-9.078186-5.3022461-16.4831848-12.3359985-21.3276062-21.8189087
				c-0.4233398-0.8286743-0.5475464-1.8851929-0.5597839-2.8392334
				c-0.1522827-11.8933105-0.8854675-23.8251953-0.1725769-35.6687012
				c0.5466309-9.081665,3.1253967-18.0236816,4.4559326-27.0786133c1.9919128-13.5562744,3.8423157-27.138855,5.3878784-40.7518921
				c0.390564-3.4400635-0.8196106-7.0320435-0.9149475-10.5643921c-0.2095642-7.7643433-6.7097473-10.5439453-11.3336182-14.8265991
				c-0.1990356-0.1843262-0.4925232-0.2780151-0.755127-0.3799438
				c-11.338562-4.4037476-18.5489502-12.5825806-22.6780701-23.9776001
				c-1.8219299-5.0280151-4.4744263-9.8061523-7.1973572-14.4331665c-1.5690918-2.6663208-4.5680542-4.5302734-5.9514771-7.25177
				c-1.5932007-3.1342773-2.7073364-6.7787476-2.926178-10.2710571c-0.1994629-3.1831055,0.9753723-6.4833984,1.7359009-9.6864014
				c0.5940247-2.5016479,0.97229-5.2712402,2.334198-7.3323364c4.0574036-6.1402588,8.668335-11.9112549,12.788208-18.0129395
				c0.9371643-1.3879395,1.2744446-3.6101685,1.0013123-5.3048096c-0.6053772-3.7557373-1.7986145-7.4140625-2.7050781-11.1237793
				c-1.0159912-4.15802,0.3675232-6.2908325,4.6390076-7.0881958c1.523468-0.2844238,3.2243652-0.0377808,4.5892639-0.6269531
				c1.2459412-0.5379028,2.189209-1.8383179,3.177887-2.8861084c0.356781-0.3781128,0.317688-1.1668091,0.696228-1.4838257
				c6.8684692-5.7529907,12.8748474-13.0019531,22.6720581-13.8139954c1.2432556-0.1030884,3.1590271,0.6939392,3.7983704,1.6939392
				c4.302124,6.7283325,10.2236328,8.1207275,17.7793274,6.9673462c5.6829834-0.8675537,11.5814514-0.2460938,17.375946-0.4841309
				c2.4673767-0.1013794,3.6112976,0.7540283,3.9431152,3.2074585c0.4488525,3.3183594,1.6085205,5.99646,5.8500671,5.5180054
				c0.7399292-0.0834351,1.8973389,0.7503662,2.3661194,1.4804077c5.6714172,8.8325806,14.3699951,11.5834351,24.1395874,12.3963013
				c9.881897,0.8220825,20.6211853,14.3579102,18.0675659,24.3041992
				C420.9674988,567.5539551,421.0057983,568.1278687,420.917572,569.2678833z"/>
		</g>
		<g>
			<g>
				<path fill="#FFD357" d="M419.917572,568.2678833c12.1409302,1.8672485,21.4474487,9.2042236,31.8424377,14.1879272
					c2.5603943,1.2275391,5.5548706,2.1078491,8.355957,2.1248169c3.4189148,0.020813,5.7992249,1.1885376,8.1781006,3.4788818
					c3.5933533,3.4597778,6.6807861,7.8317261,12.4272156,8.1599731c0.5905151,0.0336914,1.212677,1.2630615,1.6230164,2.0419922
					c0.2384644,0.4526367-0.001709,1.1323853,0.1189575,1.6776123c2.2651978,10.2362061-1.0744934,18.4741211-8.9906006,24.9863281
					c-8.2603455,6.7954712-11.1095886,15.8956909-11.4723816,26.1519165
					c-0.1344604,3.8027344-1.368927,7.0385132-4.4875793,9.6072388c-1.4142456,1.164917-2.5979309,3.1254272-2.9898682,4.9215088
					c-0.9664612,4.4291992-3.437439,6.8633423-7.6291199,8.5397339c-8.2558594,3.3017578-16.2512817,7.2525635-24.4412537,10.729248
					c-2.183136,0.9266968-3.190033,2.0978394-2.8755493,4.4157104c1.1085205,8.1714478-2.6889648,14.0878296-8.5608215,19.1847534
					c-3.7389526,3.2456055-7.2288513,6.7792969-10.8388977,10.1748047
					c-4.8199158,4.5333862-9.1457825,10.0008545-17.713501,8.1893311c1.6246338,6.2269897-1.3235168,9.9662476-5.2985229,12.4869385
					c-3.1012878,1.9665527-6.9422607,2.9007568-10.5700073,3.8504028c-3.045929,0.7973022-5.0860901,2.2966309-6.8804321,4.9503784
					c-4.6452942,6.8701782-9.6828003,13.473938-14.7814941,20.4833374c2.5036926,2.0690308,2.6737976,4.447937-0.526947,7.6339722
					c-4.3458252,4.3259888-4.102478,7.9733887,0.0594482,14.2747192c1.8795471,2.8459473,3.6381531,5.4988403,0.6272278,9.1326294
					c-1.5932922-0.4289551-3.6648254-0.5543213-5.2657776-1.4894409
					c-9.078186-5.3022461-16.4831848-12.3359985-21.3276062-21.8189087
					c-0.4233398-0.8286743-0.5475464-1.8851929-0.5597839-2.8392334
					c-0.1522827-11.8933105-0.8854675-23.8251953-0.1725769-35.6687012
					c0.5466309-9.081665,3.1253967-18.0236816,4.4559326-27.0786133c1.9919128-13.5562744,3.8423157-27.138855,5.3878784-40.7518921
					c0.390564-3.4400635-0.8196106-7.0320435-0.9149475-10.5643921
					c-0.2095642-7.7643433-6.7097473-10.5439453-11.3336182-14.8265991
					c-0.1990356-0.1843262-0.4925232-0.2780151-0.755127-0.3799438
					c-11.338562-4.4037476-18.5489502-12.5825806-22.6780701-23.9776001
					c-1.8219299-5.0280151-4.4744263-9.8061523-7.1973572-14.4331665c-1.5690918-2.6663208-4.5680542-4.5302734-5.9514771-7.25177
					c-1.5932007-3.1342773-2.7073364-6.7787476-2.926178-10.2710571c-0.1994629-3.1831055,0.9753723-6.4833984,1.7359009-9.6864014
					c0.5940247-2.5016479,0.97229-5.2712402,2.334198-7.3323364c4.0574036-6.1402588,8.668335-11.9112549,12.788208-18.0129395
					c0.9371643-1.3879395,1.2744446-3.6101685,1.0013123-5.3048096c-0.6053772-3.7557373-1.7986145-7.4140625-2.7050781-11.1237793
					c-1.0159912-4.15802,0.3675232-6.2908325,4.6390076-7.0881958c1.523468-0.2844238,3.2243652-0.0377808,4.5892639-0.6269531
					c1.2459412-0.5379028,2.189209-1.8383179,3.177887-2.8861084c0.356781-0.3781128,0.317688-1.1668091,0.696228-1.4838257
					c6.8684692-5.7529907,12.8748474-13.0019531,22.6720581-13.8139954
					c1.2432556-0.1030884,3.1590271,0.6939697,3.7983704,1.6939392c4.302124,6.7283325,10.2236328,8.1207275,17.7793274,6.9673462
					c5.6829834-0.8675537,11.5814514-0.2460938,17.375946-0.4841309c2.4673767-0.1013794,3.6112976,0.7540283,3.9431152,3.2074585
					c0.4488525,3.3183594,1.6085205,5.99646,5.8500671,5.5180054c0.7399292-0.0834351,1.8973389,0.7503662,2.3661194,1.4804077
					c5.6714172,8.8325806,14.3699951,11.5834351,24.1395874,12.3963013
					c9.881897,0.8220825,20.6211853,14.3579102,18.0675659,24.3041992
					C419.9674988,566.5539551,420.0057983,567.1278687,419.917572,568.2678833z"/>
			</g>
		</g>
	</g>
	<text transform="matrix(0.99769 0 0 1 307.9472656 624.2128906)" font-family="'MyriadPro-Regular'" font-size="24px">South America </text>
	<g id="Africa_SHAPE">
		<g opacity="0.1">
			<path d="M485.1872253,497.9945679c-5.6307983,0-9.6521912-0.1744385-13.6495361,0.0611572
				c-2.6784058,0.1578674-4.1316223-0.789856-5.3702087-3.1526489c-2.4701233-4.7119446-9.1297607-6.5062866-14.2280273-4.1182251
				c-0.7786865,0.3647766-1.5768433,0.7446289-2.2518921,1.2659607c-5.6991272,4.4011536-11.8049622,5.6425476-18.8782959,3.5566101
				c-2.4847107-0.7327576-5.8510742-0.2911377-8.2325439,0.8429565c-4.6534729,2.2160645-8.0772705,1.5171204-11.3269348-2.3149719
				c-2.5960693-3.0614319-5.4135742-5.9440918-8.2563171-8.7817993c-1.8003235-1.7971497-3.5710449-3.9980164-5.8049622-4.9082947
				c-4.9034424-1.9980164-7.1681519-5.9657898-7.862915-10.4988098c-0.7913513-5.1631775-1.1312866-10.5385132,2.8466797-15.1467896
				c4.2333679-4.9041443,3.3071899-11.1119995,2.8926086-16.8778381c-0.2044983-2.8444214,0.0674744-4.8113098,2.0457764-6.9031677
				c4.5532837-4.8147278,9.0542908-9.7084656,13.1906433-14.880188c2.9693909-3.712616,6.348053-6.2049561,11.1418762-6.3403931
				c2.6051941-0.0736084,3.900177-1.2726746,4.295105-3.8043213c0.9333496-5.9830933,3.8753967-10.0820007,10.033783-11.9294128
				c1.7199707-0.5159912,3.0259094-3.0982056,4.085083-4.9795837c1.3840942-2.4584961,2.4625549-3.3706665,5.3244019-1.5520935
				c1.7604065,1.1186523,4.7494202,1.6275024,6.6651917,0.9430847c9.6715393-3.4551697,19.3329773-6.555542,29.7998352-5.8772888
				c0.9363403,0.0606689,1.8996582-0.4933167,2.8666687-0.6753235c2.699707-0.5080872,5.407959-0.9707031,8.630249-1.5431824
				c-0.1719055,2.4219666-0.3060303,3.5355835-0.3208008,4.6508179c-0.0709839,5.3648682,1.6168518,6.8083801,6.6790161,8.3325806
				c3.8971863,1.1734314,7.3238525,3.8328247,11.1247253,5.43927c2.8797913,1.2171936,6.0196838,1.8162537,9.04422,2.6904907
				c2.2081299-7.8581238,8.6473389-10.2858276,14.902832-6.6697083c6.6236572,3.8289185,13.069397,6.9448242,21.4805298,5.4509583
				c9.6777954-1.718811,11.6422729,0.1347351,13.1986084,10.4432983c0.7320557,4.8490906,3.0085449,8.5904541,6.1100464,11.4566345
				c6.2172852,5.7456055,10.2749023,12.6022949,13.454895,20.2788391c1.4779053,3.5675659,3.5691528,6.9328308,5.7629395,10.1271973
				c1.1135864,1.621521,3.0969849,2.6308899,4.6397705,3.9717102c1.3383179,1.1630554,3.072876,2.1631775,3.838501,3.6469116
				c6.848938,13.2722168,9.2871094,12.1096191,23.3004761,9.3378296c0.8394775-0.1660461,1.6405029-0.5245972,2.4619751-0.7854614
				c4.1080933-1.3043518,5.4449463-0.171814,4.590271,4.0478821c-1.0549316,5.2082825-1.8821411,10.4995117-3.4343262,15.5618591
				c-2.5969238,8.4694214-6.8573608,15.7550354-13.7904663,21.8485718
				c-5.8303223,5.1242981-11.4691772,10.8209534-14.6947021,18.4173279
				c-3.9194946,9.2307739-4.8931885,18.1792603-1.6268921,27.9588623c2.3178101,6.9397583,3.083374,14.5848389-2.6173096,20.7492065
				c-1.8415527,1.991394-4.4355469,3.4841309-6.9507446,4.6084595
				c-5.7719727,2.5802612-12.0939331,11.9839478-11.9378052,18.2990112c0.0284424,1.1522217-0.1853027,2.3165894-0.0947266,3.460022
				c0.3538208,4.465271-1.406311,6.7637329-6.0936279,7.2225952c-1.5206909,0.1488647-3.6970825,1.965271-4.1375732,3.4476929
				c-2.9763184,10.0157471-11.5959473,15.1798706-18.4549561,21.7401123
				c-2.0524902,1.9630737-5.8284912,2.1699829-8.8544312,3.0437012c-5.1060791,1.4742432-10.2042236,3.0202026-15.3887329,4.15448
				c-1.9158325,0.4191284-4.1233521,0.0053101-6.0978394-0.4573975c-4.1393433-0.9699707-5.4351196-4.230957-5.6798706-8.0365601
				c-0.3292236-5.1187134-2.341217-9.2467651-6.1417847-12.7931519c-1.6514893-1.5410767-2.6931763-4.0118408-3.396759-6.2542725
				c-3.483429-11.1020508-6.8878174-22.2333984-10.0166321-33.4394531c-0.7198486-2.578186-0.4020691-5.4998169-0.2549744-8.2468872
				c0.0744324-1.3903198,0.7386169-2.7840576,1.2978821-4.1075439c5.0660706-11.9886475,1.6934509-23.2182617-3.651123-33.935791
				c-1.8539429-3.7176514-5.4662781-6.6785889-8.6530762-9.5664062c-2.7801208-2.5193481-2.8563538-4.7324829-1.7897949-8.2599487
				C482.8389587,511.9706116,483.697937,505.414917,485.1872253,497.9945679z"/>
		</g>
		<g>
			<g>
				<path fill="#FFD357" d="M484.1872253,496.9945679c-5.6307983,0-9.6521912-0.1744385-13.6495361,0.0611572
					c-2.6784058,0.1578674-4.1316223-0.789856-5.3702087-3.1526489c-2.4701233-4.7119446-9.1297607-6.5062866-14.2280273-4.1182251
					c-0.7786865,0.3647766-1.5768433,0.7446289-2.2518921,1.2659607
					c-5.6991272,4.4011536-11.8049622,5.6425476-18.8782959,3.5566101
					c-2.4847107-0.7327576-5.8510742-0.2911377-8.2325439,0.8429565c-4.6534729,2.2160645-8.0772705,1.5171204-11.3269348-2.3149719
					c-2.5960693-3.0614319-5.4135742-5.9440918-8.2563171-8.7817993c-1.8003235-1.7971497-3.5710449-3.9980164-5.8049622-4.9082947
					c-4.9034424-1.9980164-7.1681519-5.9657898-7.862915-10.4988098
					c-0.7913513-5.1631775-1.1312866-10.5385132,2.8466797-15.1467896
					c4.2333679-4.9041443,3.3071899-11.1119995,2.8926086-16.8778381c-0.2044983-2.8444214,0.0674744-4.8113098,2.0457764-6.9031677
					c4.5532837-4.8147278,9.0542908-9.7084656,13.1906433-14.880188c2.9693909-3.712616,6.348053-6.2049561,11.1418762-6.3403931
					c2.6051941-0.0736084,3.900177-1.2726746,4.295105-3.8043213c0.9333496-5.9830933,3.8753967-10.0820007,10.033783-11.9294128
					c1.7199707-0.5159912,3.0259094-3.0982056,4.085083-4.9795837c1.3840942-2.4584961,2.4625549-3.3706665,5.3244019-1.5520935
					c1.7604065,1.1186523,4.7494202,1.6275024,6.6651917,0.9430847c9.6715393-3.4551697,19.3329773-6.555542,29.7998352-5.8772888
					c0.9363403,0.0606689,1.8996582-0.4933167,2.8666687-0.6753235c2.699707-0.5080872,5.407959-0.9707031,8.630249-1.5431824
					c-0.1719055,2.4219666-0.3060303,3.5355835-0.3208008,4.6508179c-0.0709839,5.3648682,1.6168518,6.8083801,6.6790161,8.3325806
					c3.8971863,1.1734314,7.3238525,3.8328247,11.1247253,5.43927c2.8797913,1.2171936,6.0196838,1.8162537,9.04422,2.6904907
					c2.2081299-7.8581238,8.6473389-10.2858276,14.902832-6.6697083c6.6236572,3.8289185,13.069397,6.9448242,21.4805298,5.4509583
					c9.6777954-1.718811,11.6422729,0.1347351,13.1986084,10.4432983c0.7320557,4.8490906,3.0085449,8.5904541,6.1100464,11.4566345
					c6.2172852,5.7456055,10.2749023,12.6022949,13.454895,20.2788391
					c1.4779053,3.5675659,3.5691528,6.9328308,5.7629395,10.1271973c1.1135864,1.621521,3.0969849,2.6308899,4.6397705,3.9717102
					c1.3383179,1.1630554,3.072876,2.1631775,3.838501,3.6469116c6.848938,13.2722168,9.2871094,12.1096191,23.3004761,9.3378296
					c0.8394775-0.1660461,1.6405029-0.5245972,2.4619751-0.7854614c4.1080933-1.3043518,5.4449463-0.171814,4.590271,4.0478821
					c-1.0549316,5.2082825-1.8821411,10.4995117-3.4343262,15.5618591
					c-2.5969238,8.4694214-6.8573608,15.7550354-13.7904663,21.8485718
					c-5.8303223,5.1242981-11.4691772,10.8209534-14.6947021,18.4173279
					c-3.9194946,9.2307739-4.8931885,18.1792603-1.6268921,27.9588623
					c2.3178101,6.9397583,3.083374,14.5848389-2.6173096,20.7492065c-1.8415527,1.991394-4.4355469,3.4841309-6.9507446,4.6084595
					c-5.7719727,2.5802612-12.0939331,11.9839478-11.9378052,18.2990112
					c0.0284424,1.1522217-0.1853027,2.3165894-0.0947266,3.460022c0.3538208,4.465271-1.406311,6.7637329-6.0936279,7.2225952
					c-1.5206909,0.1488647-3.6970825,1.965271-4.1375732,3.4476929
					c-2.9763184,10.0157471-11.5959473,15.1798706-18.4549561,21.7401123
					c-2.0524902,1.9630737-5.8284912,2.1699829-8.8544312,3.0437012c-5.1060791,1.4742432-10.2042236,3.0202026-15.3887329,4.15448
					c-1.9158325,0.4191284-4.1233521,0.0053101-6.0978394-0.4573975c-4.1393433-0.9699707-5.4351196-4.230957-5.6798706-8.0365601
					c-0.3292236-5.1187134-2.341217-9.2467651-6.1417847-12.7931519c-1.6514893-1.5410767-2.6931763-4.0118408-3.396759-6.2542725
					c-3.483429-11.1020508-6.8878174-22.2333984-10.0166321-33.4394531
					c-0.7198486-2.578186-0.4020691-5.4998169-0.2549744-8.2468872c0.0744324-1.3903198,0.7386169-2.7840576,1.2978821-4.1075439
					c5.0660706-11.9886475,1.6934509-23.2182617-3.651123-33.935791c-1.8539429-3.7176514-5.4662781-6.6785889-8.6530762-9.5664062
					c-2.7801208-2.5193481-2.8563538-4.7324829-1.7897949-8.2599487
					C481.8389587,510.9706116,482.697937,504.414917,484.1872253,496.9945679z"/>
			</g>
		</g>
	</g>
	<text transform="matrix(0.99769 0 0 1 507.2285156 482.5117188)" font-family="'MyriadPro-Regular'" font-size="24px">Africa </text>
	<g id="Eurasia_SHAPE">
		<g opacity="0.1">
			<path d="M584.9866333,348.795105c-2.5819092,1.9071045-6.0269165,0.4445801-8.7907104,2.8321838
				c-4.1431885,3.5792847-4.6640015,3.8236389-3.1611938,9.3330078c-1.7340088,2.7904663-3.6138916,1.9277954-5.4007568,0.1390381
				c-2.7391968-2.7421265-5.0407104-5.7113342-4.9755859-9.9207153c0.0328369-2.1234436-0.8730469-3.4216003-3.0853271-4.383606
				c-1.8775635-0.8164062-3.2905884-2.8199158-4.7625732-4.4326172c-2.0551147-2.2516479-3.9737549-4.6284485-5.9507446-6.9516602
				c-0.4450073,0.1624756-0.8899536,0.3249817-1.3349609,0.4874573c0.3581543,1.6310425,0.2190552,3.6876221,1.1735229,4.8084412
				c2.2922974,2.6919556,5.0863037,4.9573364,7.7004395,7.3703308c1.6231689,1.4982605,3.3670654,2.9130249,3.0432739,6.3945007
				c-1.3847656-1.295105-2.1461792-2.0071716-3.4916992-3.2655029c0.9682617,4.9946594-1.6779785,6.7485962-5.3970947,8.3572693
				c0.0508423-1.1026306-0.0057983-1.7730408,0.1256714-2.4041138c0.6352539-3.0484924-0.258606-5.240448-2.6323242-7.4900208
				c-3.9606934-3.75354-7.3756714-8.0856628-11.1551514-12.3254089c-1.888855,0.9764404-4.2542114,2.1992493-6.7340698,3.4812927
				c-0.7334595-0.9176331-1.2741089-1.7266846-1.944397-2.4074402c-1.9450073-1.9754639-3.7008057-1.6995544-4.2280273,1.041626
				c-0.5671997,2.9488525-2.2605591,3.3311768-4.6957397,3.4805603c-1.9337158,0.1185608-3.8463745,0.693512-5.7514038,1.1387634
				c-2.0419617,0.4772949-2.6307068,1.785614-2.4301147,3.8645325c0.3977051,4.1222839-0.9843445,5.4408875-4.9582214,5.8247986
				c-2.4985352,0.2413635-4.9390259,1.0547485-7.4185181,1.5458679c-0.6864319,0.1359253-1.4957581,0.243042-2.1178589,0.0110168
				c-3.3541565-1.2509766-5.664856-7.6192627-3.9810486-10.791748c2.5895691-4.8789673,5.1869507-9.7537842,7.8744812-14.8060303
				c3.6774902,1.3017578,6.994873,2.1891479,10.0407715,3.6466675c2.3574524,1.1281738,3.7840881,0.3604126,4.2641296-1.6514893
				c0.6724243-2.8182678,0.9040527-5.7854309,0.9154053-8.6905212c0.0031128-0.7885132-1.447876-1.6007385-2.2624512-2.3690491
				c-0.7241211-0.6829834-1.4911194-1.3201904-1.9430237-1.7173462c5.9224548-1.8023376,11.3923035-3.0104675,16.4613953-5.1656494
				c3.5403442-1.5051575,6.4800415-4.3899231,9.8016968-6.476593c0.954895-0.599823,2.2944946-0.6467285,3.4766235-0.8038025
				c1.3258667-0.1762085,2.6732178-0.1899414,4.2025757-0.286438c0.2038574-1.5877686,0.1621704-3.1091003,0.6515503-4.4332275
				c0.3317261-0.8974609,1.4094849-1.5178528,2.1535645-2.262146c0.6861572,0.7219543,1.6983032,1.3279114,2.0019531,2.1858826
				c1.3248291,3.7426758,4.5065308,5.7103882,8.4862061,4.9040833c2.041626-0.4136047,4.0664673-0.9344788,6.069458-1.5097351
				c2.2261963-0.6393127,4.5576172-1.0837708,4.2365723-4.4471741c-0.0776978-0.8139954,1.3262329-1.9620667,2.2711792-2.649292
				c4.381958-3.1867065,8.9625244-6.1098022,13.2355347-9.4327393c3.302002-2.5678406,3.2998047-5.1474609,0.6843872-7.771698
				c-1.559082,2.8208008-2.7910767,5.9728088-4.8392334,8.4454956c-1.4776611,1.7839966-3.907959,3.0206604-6.1517944,3.8643188
				c-3.4179077,1.2851257-6.0917969-1.1682129-5.1782227-4.7896118c0.5966797-2.3654175,1.6182861-4.9330444,3.24823-6.6467896
				c1.9545288-2.0549927,2.5827637-3.6702881,0.5560913-6.4185486c-0.6541748,0.6289368-1.8066406,1.2377625-1.7820435,1.79422
				c0.1613159,3.6421509-2.6358643,5.3224182-4.5275269,7.6854553c-0.9157715,1.1439514-1.6218262,3.0426941-1.3875732,4.4232483
				c0.9697266,5.7160645-0.7902222,8.895752-6.3956299,11.0273132c-1.0705566,0.407135-1.8752441,1.5168762-3.6986694,3.0615234
				c-0.8979492-2.7101135-1.6574097-5.0022583-2.4954224-7.5314026c-0.8889771,0.6479187-2.0083618,1.4638672-3.37854,2.4624939
				c-0.5631104-0.6751404-1.0751953-1.3030396-1.6019287-1.918396c-4.5649414-5.333374-4.6477661-5.3760071-1.3492432-11.6548157
				c0.6563721-1.2495117,2.0543213-2.535553,3.3720703-2.9333801c5.5045166-1.6618652,9.3745117-5.2366638,12.4299316-9.8756714
				c5.3032837-8.052002,14.6456909-10.3624268,23.1663818-5.9911804c4.4723511,2.2943726,9.2041016,4.0887146,13.8638916,5.9981079
				c0.6082764,0.2492371,1.8018188,0.1174011,2.1869507-0.3168335c2.0302124-2.2887878,4.3873901-4.4911499,5.6754761-7.1830139
				c1.5067749-3.1489258,3.2870483-4.6212769,6.7313843-3.8891907c0.5717773,0.1215515,1.2028198-0.0368347,2.5675049-0.102417
				c-0.4822998-1.368988-0.6625366-2.5932922-1.3004761-3.4906616c-0.6372681-0.8964386-2.3744507-1.365097-2.5041504-2.1974792
				c-0.3566895-2.2894745-0.2849731-4.6913147,0.0007324-7.0010529c0.0635376-0.5137024,1.7106934-1.1968689,2.614502-1.1762543
				c3.8647461,0.0880737,6.0278931-1.8853607,6.1047974-5.8739624c0.0834351-4.3229523-0.0247192-8.6624298,0.3516846-12.9593964
				c0.119812-1.3672638,1.2398682-3.0258331,2.3991699-3.840744c2.1975098-1.5447235,4.6408081-2.9340973,7.1858521-3.7443695
				c4.9165039-1.5652618,7.0903931-4.7800598,7.0471191-9.7868195c-0.0169678-1.9628296,0.6229248-3.1004028,2.958313-3.2913208
				c3.19104-0.2608948,7.3185425-4.8549957,7.3110352-8.1431122c-0.0084229-3.6655731-0.3002319-7.3626251-0.8543701-10.9867249
				c-0.6999512-4.5778046-1.416687-8.9608917,2.383606-12.7259369c0.6895752-0.6831512,0.5491943-2.2970123,0.6306152-3.4922638
				c0.3149414-4.6214294,1.3850708-8.8630219,6.0049438-11.0502319c2.6851807-1.2712555,2.4936523-3.3043518,1.8567505-5.4415283
				c2.8148804-1.1984253,5.4169922-2.777298,8.2241211-3.3547211c2.3119507-0.4755554,4.8875122,0.0961914,7.3093262,0.454361
				c3.5654907,0.527298,2.7166748,3.2720795,2.7649536,5.7032471c0.0992432,4.997818,3.4784546,8.2693939,7.2492065,10.3711243
				c3.1266479,1.7427368,5.3083496,3.0795746,4.522583,6.9989929c-1.2337646,6.1547546,1.2548828,10.0314178,7.2860107,11.7093048
				c0.9303589,0.2588348,1.8215942,0.7751312,2.6356201,1.3164673c2.5176392,1.6743317,3.8200073,0.2760162,4.7676392-1.8684998
				c2.8375244-6.4213409,3.835083-6.9057159,10.1133423-4.7394257c5.7088623,1.9698334,5.7088623,1.9698334,7.6282959,6.0901794
				c3.0214233,0.2274933,6.1323853-0.3139954,8.4143677,0.8203278c3.2025757,1.59198,5.6287231,4.676239,8.6812744,6.6692657
				c3.4259644,2.2368927,4.5846558,5.0567474,3.7091064,8.9310455c-0.1314697,0.5818024-0.2803345,1.4554749,0.0231934,1.7952881
				c3.7312012,4.1768646,7.545166,8.2794037,11.6848755,12.7785645c2.4306641-4.5684814,6.2532349-4.9835205,9.2570801-3.0148315
				c2.1452026,1.4059296,2.9086304,4.9303589,4.2886963,7.509491c-0.3462524,0.3855286-0.6925049,0.7710724-1.0386963,1.156601
				c-2.4642334-0.4136505-4.9309692-0.8131104-7.3917236-1.2470093c-1.2102051-0.2133942-2.4246826-0.7539368-3.6101685-0.6841278
				c-2.4819336,0.1461334-5.354187-0.0357056-7.2476196,1.1888733c-0.9681396,0.6261139-0.1696777,3.9968872-0.1696777,6.6508636
				c-5.0814819,1.336441-1.6990356,5.7472534-1.9936523,9.1854553c1.9453125-0.4051666,3.6785889-0.7661743,5.8996582-1.2287903
				c-0.8931274-3.5332031-2.3433838-7.8861542,4.0373535-8.9866486c0.8446045,3.5361481,1.6607056,6.9529724,2.5531616,10.6894684
				c4.1067505-0.3352966,8.0519409-0.4160461,11.9121094-1.0319977c5.1305542-0.8186646,8.8706055,1.8085632,11.3444824,5.3809814
				c3.7679443,5.4410248,7.4578857,11.2578735,9.5009155,17.4702759c1.4880371,4.5242615,2.645752,9.8897705-0.1150513,15.0288696
				c-0.9708252,1.8070984-0.1550293,4.5786133-0.1550293,6.9357605c3.3654175,0.9799805,6.0925293,2.379303,5.5531616,6.2918396
				c-0.1279297,0.9280701-0.9643555,2.2556152-1.7230225,2.4561157c-0.730957,0.1931763-1.809082-0.79245-2.6779175-1.3491211
				c-0.2667847-0.1708984-0.289917-0.6832886-0.5219116-0.9563599c-1.1014404-1.2966309-2.2364502-2.5646362-3.3594971-3.8428345
				c-0.5848389,1.6168213-1.2185669,3.2182312-1.7338867,4.8570557c-0.2566528,0.8160095-0.354126,1.6957703-0.4247437,2.5548706
				c-0.3927612,4.7854919,1.2109985,6.400238,5.979187,5.9020691c3.9151001-0.4090576,7.8115845-1.2255554,11.7278442-1.3074646
				c2.2235718-0.0465088,4.5917358,0.7430725,6.6754761,1.657959c2.5258179,1.1089478,3.8635254,3.0712891,3.3031006,6.2124634
				c-0.4951782,2.7750854-0.5731812,5.6688843-0.461731,8.4954529c0.0962524,2.4375-0.6366577,3.7035217-2.9945068,4.677063
				c-4.7684326,1.96875-9.3543091,4.3818054-13.5409546,6.3846436c0.8007202,1.8371277,1.6768188,3.5213928,2.2749634,5.2995911
				c0.8037109,2.3892212,4.9799805,3.7705688,8.3026733,2.3427429c1.8994751-0.8162537,3.6124268-2.0918274,5.3589478-3.237854
				c3.715271-2.4379272,8.7827759-1.963623,11.8623047,1.1641235c2.0423584,2.0743408,1.927002,4.0487671-0.6809692,5.342041
				c-1.8221436,0.903595-3.9369507,1.5503235-5.954834,1.6548462c-5.0410767,0.2612-10.1015625,0.1672974-15.1541748,0.1626587
				c-0.7009888-0.0006409-1.5038452-0.1353455-2.0857544-0.4924927c-3.4244385-2.1019287-6.7930298-4.295105-10.1891479-6.4437256
				c-2.619812-1.6575012-5.2891235-2.0665588-7.8651123,0.0110168c-0.5788574,0.4668579-1.2814941,1.4341125-1.1618042,2.0117188
				c0.8502808,4.1047974-1.5449829,5.4616394-5.2833252,6.237915c-2.055542-5.2874756-6.6863403-4.9598083-11.2962646-4.6956787
				c-0.4915161,0.0281677-0.9864502,0.012146-1.4793701,0.0002136c-6.0600586-0.1466064-6.060791-0.1477356-8.5031128,5.455719
				c-0.147644,0.3386841-0.1661987,0.8742981-0.4126587,1.0084839c-4.8560791,2.6440125-2.1484375,6.219574-1.7929688,9.9656982
				c0.526001,5.5437317-0.1522217,11.2692871-0.8919678,16.8407898c-0.4261475,3.210022-0.3077393,5.4734497,2.9234009,6.9871521
				c2.5080566,1.1749878,7.3029785,10.4601746,6.4850464,12.9295044c-0.3848267,1.1618652-2.3035278,2.7210388-3.3666382,2.6063232
				c-8.8991699-0.9603577-17.7652588-2.2397156-26.6262207-3.5267029c-0.6890259-0.1000977-1.6582642-0.8837891-1.8258667-1.5258789
				c-0.8361816-3.2027893-3.3145142-3.6308899-5.9586792-3.827179c-0.5544434-1.46875-1.0891724-2.885376-1.6315308-4.3223267
				c-0.7244873,0.1471558-1.1771851,0.0998535-1.3977051,0.3042297c-5.7963867,5.3704834-12.5788574,3.3690491-19.1314697,2.45401
				c-3.7918701-0.529541-6.8694458-0.276062-10.168396,2.3739014c-6.3371582,5.0905151-13.9168701,4.8357239-21.5020752,3.2860107
				c-1.0476685-0.2140503-2.3922729-0.7167053-3.1592407-0.2902832c-7.2461548,4.0290222-12.0933228,0.0141296-16.8552856-4.7197266
				c-1.0797729-1.0734863-2.413208-2.0557251-3.815979-2.5740662c-0.8087158-0.2988586-2.2406616,0.1470032-2.9094238,0.7745056
				c-0.399353,0.3747559-0.1083984,1.8735657,0.2888794,2.6540222c2.5548706,5.0198059,6.3883057,8.3743591,12.3094482,8.7244873
				c0.1459961,1.2878418,0.269043,2.3730164,0.3994141,3.5228882c6.1008911,2.198822,6.7687988-3.4636841,9.4404297-6.8373413
				c0.953125,0.6124268,1.960144,1.0370178,2.6671143,1.7574158c1.7908936,1.8248901,3.3312378,3.4559937,6.3438721,3.7244263
				c2.9446411,0.2623596,4.2891235,3.1426697,3.3266602,5.9532166c-2.0784912,6.0695496-2.4509888,12.8924561-7.2757568,17.8091431
				c-1.0471802,1.0670776-2.4160767,1.8270569-3.6740112,2.6728516c-0.9961548,0.6697388-2.3884277,1.0153503-3.0205078,1.916626
				c-3.3889771,4.8323975-8.4883423,7.1575928-13.4227905,9.8502197c-2.7840576,1.5191956-5.302002,3.5757446-7.7966919,5.5700073
				c-4.5699463,3.6531372-6.9442749,2.9658508-8.7417603-2.4072876c-1.241394-3.7107239-2.2675171-7.7398682-4.5161743-10.7932129
				c-2.0406494-2.7709045-6.2582397-3.9281311-8.3079834-6.6957703c-1.9570923-2.6424866-1.5077515-7.1842957-3.6011353-9.5961609
				c-5.9041138-6.8022156-12.5633545-12.9468994-18.9466553-19.3289185c-0.8640137-0.8638-1.8522339-1.6027222-3.6324463-3.12677
				c1.93396-1.2209473,3.4289551-2.8835754,5.0900269-3.0715332c4.1161499-0.4658203,5.4150391-3.6584778,5.9903564-6.5209656
				c0.746521-3.7145081,0.182251-7.6937561,0.182251-11.559021c-0.465271-0.1100464-0.930542-0.2200928-1.395813-0.3301697
				c-1.1973267,1.2707214-2.3946533,2.5414734-3.5393677,3.7564087c-3.3560791-0.401825-6.2322388-4.6429443-9.760437-1.0361633
				c-1.8825073-1.3430176-3.6981201-2.8042603-5.668396-4.0119934c-5.3338013-3.2695618-5.7624512-7.9491577-1.0378418-12.0944519
				c0.3340454-0.2931213,0.5076904-0.769989,0.7555542-1.1612854c3.1849365,0.0829773,6.2453613,0.3008118,8.4239502-3.0378113
				c0.6907959-1.0585938,3.0748901-1.6606445,4.5315552-1.4434204c4.7811279,0.7129517,9.4622192,2.1233521,14.2485962,2.7628479
				c1.4082642,0.1881409,3.9738159-0.997345,4.3168335-2.0880127c0.3805542-1.2101746-0.7658081-3.6489563-1.9754028-4.4551697
				c-2.2911987-1.5270691-5.1102295-2.251709-7.6939697-3.3476257c-1.1550903-0.4899902-2.2716064-1.0714722-3.4056396-1.6114502
				c0.5686646-0.9964294,1.0738525-2.0370483,1.723999-2.9768372c0.6512451-0.9413757,1.4473267-1.7821045,2.1799316-2.6669617
				c-0.2669678-0.3160706-0.5339966-0.6321716-0.8009644-0.9482422c-1.72229,1.4326477-4.6394043,2.676178-4.9015503,4.3399963
				c-0.4528809,2.8745117-1.8596191,3.7773743-4.1013794,4.2982178c-2.7426147,0.6372375-3.5146484-1.3804932-4.4813843-3.3453979
				c-0.371582-0.7552185-1.6264038-1.6594238-2.3531494-1.5612488c-6.0717773,0.8201294-9.6450806,7.5789795-7.1002197,13.1793518
				C583.9754639,346.8224487,584.4953003,347.8022766,584.9866333,348.795105z"/>
		</g>
		<g>
			<g>
				<path fill="#FFD357" d="M583.9866333,347.795105c-2.5819092,1.9071045-6.0269165,0.4445801-8.7907104,2.8321838
					c-4.1431885,3.5792847-4.6640015,3.8236389-3.1611938,9.3330078c-1.7340088,2.7904663-3.6138916,1.9277954-5.4007568,0.1390381
					c-2.7391968-2.7421265-5.0407104-5.7113342-4.9755859-9.9207153c0.0328369-2.1234436-0.8730469-3.4216003-3.0853271-4.383606
					c-1.8775635-0.8164062-3.2905884-2.8199158-4.7625732-4.4326172c-2.0551147-2.2516479-3.9737549-4.6284485-5.9507446-6.9516602
					c-0.4450073,0.1624756-0.8899536,0.3249817-1.3349609,0.4874573c0.3581543,1.6310425,0.2190552,3.6876221,1.1735229,4.8084412
					c2.2922974,2.6919556,5.0863037,4.9573364,7.7004395,7.3703308c1.6231689,1.4982605,3.3670654,2.9130249,3.0432739,6.3945007
					c-1.3847656-1.295105-2.1461792-2.0071716-3.4916992-3.2655029c0.9682617,4.9946594-1.6779785,6.7485962-5.3970947,8.3572693
					c0.0508423-1.1026306-0.0057983-1.7730408,0.1256714-2.4041138c0.6352539-3.0484924-0.258606-5.240448-2.6323242-7.4900208
					c-3.9606934-3.75354-7.3756714-8.0856628-11.1551514-12.3254089c-1.888855,0.9764404-4.2542114,2.1992493-6.7340698,3.4812927
					c-0.7334595-0.9176331-1.2741089-1.7266846-1.944397-2.4074402c-1.9450073-1.9754639-3.7008057-1.6995544-4.2280273,1.041626
					c-0.5671997,2.9488525-2.2605591,3.3311768-4.6957397,3.4805603c-1.9337158,0.1185608-3.8463745,0.693512-5.7514038,1.1387634
					c-2.0419617,0.4772949-2.6307068,1.785614-2.4301147,3.8645325c0.3977051,4.1222839-0.9843445,5.4408875-4.9582214,5.8247986
					c-2.4985352,0.2413635-4.9390259,1.0547485-7.4185181,1.5458679c-0.6864319,0.1359253-1.4957581,0.243042-2.1178589,0.0110168
					c-3.3541565-1.2509766-5.664856-7.6192627-3.9810486-10.791748c2.5895691-4.8789673,5.1869507-9.7537842,7.8744812-14.8060303
					c3.6774902,1.3017578,6.994873,2.1891479,10.0407715,3.6466675c2.3574829,1.1281738,3.7840881,0.3604126,4.2641296-1.6514893
					c0.6724243-2.8182678,0.9040527-5.7854309,0.9154053-8.6905212c0.0031128-0.7885132-1.447876-1.6007385-2.2624512-2.3690491
					c-0.7240906-0.6829834-1.4911194-1.3201904-1.9430237-1.7173462c5.9224548-1.8023376,11.3923035-3.0104675,16.4613953-5.1656494
					c3.5403442-1.5051575,6.4800415-4.3899231,9.8016968-6.476593c0.954895-0.599823,2.2944946-0.6467285,3.4766235-0.8038025
					c1.3258667-0.1762085,2.6732178-0.1899414,4.2025757-0.286438c0.2038574-1.5877686,0.1621704-3.1091003,0.6515503-4.4332275
					c0.3317261-0.8974609,1.4094849-1.5178528,2.1535645-2.262146c0.6861572,0.7219543,1.6983032,1.3279114,2.0019531,2.1858826
					c1.3248291,3.7426758,4.5065308,5.7103882,8.4862061,4.9040833c2.041626-0.4136047,4.0664673-0.9344788,6.069458-1.5097351
					c2.2261963-0.6393127,4.5576172-1.0837708,4.2365723-4.4471741c-0.0776978-0.8139954,1.3262329-1.9620667,2.2711792-2.649292
					c4.381958-3.1867065,8.9625244-6.1098022,13.2355347-9.4327393c3.302002-2.5678406,3.2998047-5.1474609,0.6843872-7.771698
					c-1.559082,2.8208008-2.7910767,5.9728088-4.8392334,8.4454956c-1.4776611,1.7839966-3.907959,3.0206604-6.1517944,3.8643188
					c-3.4179077,1.2851257-6.0917969-1.1682129-5.1782227-4.7896118c0.5966797-2.3654175,1.6182861-4.9330444,3.24823-6.6467896
					c1.9545288-2.0549927,2.5827637-3.6702881,0.5560913-6.4185486c-0.6541748,0.6289368-1.8066406,1.2377625-1.7820435,1.79422
					c0.1613159,3.6421509-2.6358643,5.3224182-4.5275269,7.6854553c-0.9157715,1.1439514-1.6218262,3.0426941-1.3875732,4.4232483
					c0.9697266,5.7160645-0.7902222,8.895752-6.3956299,11.0273132c-1.0705566,0.407135-1.8752441,1.5168762-3.6986694,3.0615234
					c-0.8979492-2.7101135-1.6574097-5.0022583-2.4954224-7.5314026c-0.8889771,0.6479187-2.0083618,1.4638672-3.37854,2.4624939
					c-0.5631104-0.6751404-1.0751953-1.3030396-1.6019287-1.918396c-4.5649414-5.333374-4.6477661-5.3760071-1.3492432-11.6548157
					c0.6563721-1.2495117,2.0543213-2.535553,3.3720703-2.9333801c5.5045166-1.6618652,9.3745117-5.2366638,12.4299316-9.8756714
					c5.3032837-8.052002,14.6456909-10.3624268,23.1663818-5.9911804c4.4723511,2.2943726,9.2041016,4.0887146,13.8638916,5.9981079
					c0.6082764,0.2492371,1.8018188,0.1174011,2.1869507-0.3168335c2.0302124-2.2887878,4.3873901-4.4911499,5.6754761-7.1830139
					c1.5067749-3.1489258,3.2870483-4.6212769,6.7313843-3.8891907c0.5717773,0.1215515,1.2028198-0.0368347,2.5675049-0.102417
					c-0.4822998-1.368988-0.6625366-2.5932922-1.3004761-3.4906616c-0.6372681-0.8964386-2.3744507-1.365097-2.5041504-2.1974792
					c-0.3566895-2.2894745-0.2849731-4.6913147,0.0007324-7.0010529c0.0635376-0.5137024,1.7106934-1.1968689,2.614502-1.1762543
					c3.8647461,0.0880737,6.0278931-1.8853607,6.1047974-5.8739624c0.0834351-4.3229523-0.0247192-8.6624298,0.3516846-12.9593964
					c0.119812-1.3672638,1.2398682-3.0258331,2.3991699-3.840744c2.1975098-1.5447235,4.6408081-2.9340973,7.1858521-3.7443695
					c4.9165039-1.5652618,7.0903931-4.7800598,7.0471191-9.7868195c-0.0169678-1.9628296,0.6229248-3.1004028,2.958313-3.2913208
					c3.19104-0.2608948,7.3185425-4.8549957,7.3110352-8.1431122c-0.0084229-3.6655731-0.3002319-7.3626251-0.8543701-10.9867249
					c-0.6999512-4.5778046-1.416687-8.9608917,2.383606-12.7259369c0.6895752-0.6831512,0.5491943-2.2970123,0.6306152-3.4922638
					c0.3149414-4.6214294,1.3850708-8.8630219,6.0049438-11.0502319c2.6851807-1.2712555,2.4936523-3.3043518,1.8567505-5.4415283
					c2.8148804-1.1984253,5.4169922-2.777298,8.2241211-3.3547211c2.3119507-0.4755554,4.8875122,0.0961914,7.3093262,0.454361
					c3.5654907,0.527298,2.7166748,3.2720795,2.7649536,5.7032471c0.0992432,4.997818,3.4784546,8.2693939,7.2492065,10.3711243
					c3.1266479,1.7427368,5.3083496,3.0795746,4.522583,6.9989929c-1.2337646,6.1547546,1.2548828,10.0314178,7.2860107,11.7093048
					c0.9303589,0.2588348,1.8215942,0.7751312,2.6356201,1.3164673c2.5176392,1.6743317,3.8200073,0.2760162,4.7676392-1.8684998
					c2.8375244-6.4213409,3.835083-6.9057159,10.1133423-4.7394257c5.7088623,1.9698334,5.7088623,1.9698334,7.6282959,6.0901794
					c3.0214233,0.2274933,6.1323853-0.3139954,8.4143677,0.8203278c3.2025757,1.59198,5.6287231,4.676239,8.6812744,6.6692657
					c3.4259644,2.2368927,4.5846558,5.0567474,3.7091064,8.9310455c-0.1314697,0.5818024-0.2803345,1.4554749,0.0231934,1.7952881
					c3.7312012,4.1768646,7.545166,8.2794037,11.6848755,12.7785645c2.4306641-4.5684814,6.2532349-4.9835205,9.2570801-3.0148315
					c2.1452026,1.4059296,2.9086304,4.9303589,4.2886963,7.509491c-0.3462524,0.3855286-0.6925049,0.7710724-1.0386963,1.156601
					c-2.4642334-0.4136505-4.9309692-0.8131104-7.3917236-1.2470093c-1.2102051-0.2133942-2.4246826-0.7539368-3.6101685-0.6841278
					c-2.4819336,0.1461334-5.354187-0.0357056-7.2476196,1.1888733c-0.9681396,0.6261139-0.1696777,3.9968872-0.1696777,6.6508636
					c-5.0814819,1.336441-1.6990356,5.7472534-1.9936523,9.1854553c1.9453125-0.4051666,3.6785889-0.7661743,5.8996582-1.2287903
					c-0.8931274-3.5332031-2.3433838-7.8861542,4.0373535-8.9866486c0.8446045,3.5361481,1.6607056,6.9529724,2.5531616,10.6894684
					c4.1067505-0.3352966,8.0519409-0.4160461,11.9121094-1.0319977c5.1305542-0.8186646,8.8706055,1.8085632,11.3444824,5.3809814
					c3.7679443,5.4410248,7.4578857,11.2578735,9.5009155,17.4702759c1.4880371,4.5242615,2.645752,9.8897705-0.1150513,15.0288696
					c-0.9708252,1.8070984-0.1550293,4.5786133-0.1550293,6.9357605c3.3654175,0.9799805,6.0925293,2.379303,5.5531616,6.2918396
					c-0.1279297,0.9280701-0.9643555,2.2556152-1.7230225,2.4561157c-0.730957,0.1931763-1.809082-0.79245-2.6779175-1.3491211
					c-0.2667847-0.1708984-0.289917-0.6832886-0.5219116-0.9563599c-1.1014404-1.2966309-2.2364502-2.5646362-3.3594971-3.8428345
					c-0.5848389,1.6168213-1.2185669,3.2182312-1.7338867,4.8570557c-0.2566528,0.8160095-0.354126,1.6957703-0.4247437,2.5548706
					c-0.3927612,4.7854919,1.2109985,6.400238,5.979187,5.9020691c3.9151001-0.4090576,7.8115845-1.2255554,11.7278442-1.3074646
					c2.2235718-0.0465088,4.5917358,0.7430725,6.6754761,1.657959c2.5258179,1.1089478,3.8635254,3.0712891,3.3031006,6.2124634
					c-0.4951782,2.7750854-0.5731812,5.6688843-0.461731,8.4954529c0.0962524,2.4375-0.6366577,3.7035217-2.9945068,4.677063
					c-4.7684326,1.96875-9.3543091,4.3818054-13.5409546,6.3846436c0.8007202,1.8371277,1.6768188,3.5213928,2.2749634,5.2995911
					c0.8037109,2.3892212,4.9799805,3.7705688,8.3026733,2.3427429c1.8994751-0.8162537,3.6124268-2.0918274,5.3589478-3.237854
					c3.715271-2.4379272,8.7827759-1.963623,11.8623047,1.1641235c2.0423584,2.0743408,1.927002,4.0487671-0.6809692,5.342041
					c-1.8221436,0.903595-3.9369507,1.5503235-5.954834,1.6548462c-5.0410767,0.2612-10.1015625,0.1672974-15.1541748,0.1626587
					c-0.7009888-0.0006409-1.5038452-0.1353455-2.0857544-0.4924927c-3.4244385-2.1019287-6.7930298-4.295105-10.1891479-6.4437256
					c-2.619812-1.6575012-5.2891235-2.0665588-7.8651123,0.0110168c-0.5788574,0.4668579-1.2814941,1.4341125-1.1618042,2.0117188
					c0.8502808,4.1047974-1.5449829,5.4616394-5.2833252,6.237915c-2.055542-5.2874756-6.6863403-4.9598083-11.2962646-4.6956787
					c-0.4915161,0.0281677-0.9864502,0.012146-1.4793701,0.0002136c-6.0600586-0.1466064-6.060791-0.1477356-8.5031128,5.455719
					c-0.147644,0.3386841-0.1661987,0.8742981-0.4126587,1.0084839c-4.8560791,2.6440125-2.1484375,6.219574-1.7929688,9.9656982
					c0.526001,5.5437317-0.1522217,11.2692871-0.8919678,16.8407898c-0.4261475,3.210022-0.3077393,5.4734497,2.9234009,6.9871521
					c2.5080566,1.1749878,7.3029785,10.4601746,6.4850464,12.9295044c-0.3848267,1.1618652-2.3035278,2.7210388-3.3666382,2.6063232
					c-8.8991699-0.9603577-17.7652588-2.2397156-26.6262207-3.5267029
					c-0.6890259-0.1000977-1.6582642-0.8837891-1.8258667-1.5258789c-0.8361816-3.2027893-3.3145142-3.6308899-5.9586792-3.827179
					c-0.5544434-1.46875-1.0891724-2.885376-1.6315308-4.3223267c-0.7244873,0.1471558-1.1771851,0.0998535-1.3977051,0.3042297
					c-5.7963867,5.3704834-12.5788574,3.3690491-19.1314697,2.45401c-3.7918701-0.529541-6.8694458-0.276062-10.168396,2.3739014
					c-6.3371582,5.0905151-13.9168701,4.8357239-21.5020752,3.2860107
					c-1.0476685-0.2140503-2.3922729-0.7167053-3.1592407-0.2902832
					c-7.2461548,4.0290222-12.0933228,0.0141296-16.8552856-4.7197266c-1.0797729-1.0734863-2.413208-2.0557251-3.815979-2.5740662
					c-0.8087158-0.2988586-2.2406616,0.1470032-2.9094238,0.7745056c-0.399353,0.3747559-0.1083984,1.8735657,0.2888794,2.6540222
					c2.5548706,5.0198059,6.3883057,8.3743591,12.3094482,8.7244873c0.1459961,1.2878418,0.269043,2.3730164,0.3994141,3.5228882
					c6.1008911,2.198822,6.7687988-3.4636841,9.4404297-6.8373413c0.953125,0.6124268,1.960144,1.0370178,2.6671143,1.7574158
					c1.7908936,1.8248901,3.3312378,3.4559937,6.3438721,3.7244263c2.9446411,0.2623596,4.2891235,3.1426697,3.3266602,5.9532166
					c-2.0784912,6.0695496-2.4509888,12.8924561-7.2757568,17.8091431
					c-1.0471802,1.0670776-2.4160767,1.8270569-3.6740112,2.6728516c-0.9961548,0.6697388-2.3884277,1.0153503-3.0205078,1.916626
					c-3.3889771,4.8323975-8.4883423,7.1575928-13.4227905,9.8502197c-2.7840576,1.5191956-5.302002,3.5757446-7.7966919,5.5700073
					c-4.5699463,3.6531372-6.9442749,2.9658508-8.7417603-2.4072876c-1.241394-3.7107239-2.2675171-7.7398682-4.5161743-10.7932129
					c-2.0406494-2.7709045-6.2582397-3.9281311-8.3079834-6.6957703c-1.9570923-2.6424866-1.5077515-7.1842957-3.6011353-9.5961609
					c-5.9041138-6.8022156-12.5633545-12.9468994-18.9466553-19.3289185c-0.8640137-0.8638-1.8522339-1.6027222-3.6324463-3.12677
					c1.93396-1.2209473,3.4289551-2.8835754,5.0900269-3.0715332c4.1161499-0.4658203,5.4150391-3.6584778,5.9903564-6.5209656
					c0.746521-3.7145081,0.182251-7.6937561,0.182251-11.559021c-0.465271-0.1100464-0.930542-0.2200928-1.395813-0.3301697
					c-1.1973267,1.2707214-2.3946533,2.5414734-3.5393677,3.7564087c-3.3560791-0.401825-6.2322388-4.6429443-9.760437-1.0361633
					c-1.8825073-1.3430176-3.6981201-2.8042603-5.668396-4.0119934c-5.3338013-3.2695618-5.7624512-7.9491577-1.0378418-12.0944519
					c0.3340454-0.2931213,0.5076904-0.769989,0.7555542-1.1612854c3.1849365,0.0829773,6.2453613,0.3008118,8.4239502-3.0378113
					c0.6907959-1.0585938,3.0748901-1.6606445,4.5315552-1.4434204c4.7811279,0.7129517,9.4622192,2.1233521,14.2485962,2.7628479
					c1.4082642,0.1881409,3.9738159-0.997345,4.3168335-2.0880127c0.3805542-1.2101746-0.7658081-3.6489563-1.9754028-4.4551697
					c-2.2911987-1.5270691-5.1102295-2.251709-7.6939697-3.3476257c-1.1550903-0.4899902-2.2716064-1.0714722-3.4056396-1.6114502
					c0.5686646-0.9964294,1.0738525-2.0370483,1.723999-2.9768372c0.6512451-0.9413757,1.4473267-1.7821045,2.1799316-2.6669617
					c-0.2669678-0.3160706-0.5339966-0.6321716-0.8009644-0.9482422c-1.72229,1.4326477-4.6394043,2.676178-4.9015503,4.3399963
					c-0.4528809,2.8745117-1.8596191,3.7773743-4.1013794,4.2982178c-2.7426147,0.6372375-3.5146484-1.3804932-4.4813843-3.3453979
					c-0.371582-0.7552185-1.6264038-1.6594238-2.3531494-1.5612488c-6.0717773,0.8201294-9.6450806,7.5789795-7.1002197,13.1793518
					C582.9754639,345.8224487,583.4953003,346.8022766,583.9866333,347.795105z"/>
			</g>
		</g>
	</g>
	<text transform="matrix(0.99769 0 0 1 653.7128906 300.8173828)" font-family="'MyriadPro-Regular'" font-size="24px">Eurasia </text>
	<defs>
		
			<filter id="Adobe_OpacityMaskFilter_00000003080700756941228750000007102101529297638321_" filterUnits="userSpaceOnUse" x="331.355011" y="537.3907471" width="456.9307251" height="390.2346191">
			<feColorMatrix  type="matrix" values="1 0 0 0 0  0 1 0 0 0  0 0 1 0 0  0 0 0 1 0"/>
		</filter>
	</defs>
	
		<mask maskUnits="userSpaceOnUse" x="331.355011" y="537.3907471" width="456.9307251" height="390.2346191" id="SVGID_00000110467940471753146990000014815408598612861874_">
		<g filter="url(#Adobe_OpacityMaskFilter_00000003080700756941228750000007102101529297638321_)">
			
				<linearGradient id="SVGID_00000042708769649927487960000008494876350879710127_" gradientUnits="userSpaceOnUse" x1="398.8427429" y1="478.7667847" x2="822.9747314" y2="928.0998535">
				<stop  offset="0" style="stop-color:#FFFFFF"/>
				<stop  offset="0.2767815" style="stop-color:#FDFDFD"/>
				<stop  offset="0.3764975" style="stop-color:#F6F6F6"/>
				<stop  offset="0.4475662" style="stop-color:#EBEBEB"/>
				<stop  offset="0.5050664" style="stop-color:#DADADA"/>
				<stop  offset="0.5542873" style="stop-color:#C4C4C4"/>
				<stop  offset="0.5978966" style="stop-color:#A8A8A8"/>
				<stop  offset="0.6373571" style="stop-color:#888888"/>
				<stop  offset="0.6736101" style="stop-color:#626262"/>
				<stop  offset="0.7073411" style="stop-color:#373737"/>
				<stop  offset="0.7372711" style="stop-color:#090909"/>
				<stop  offset="0.7427528" style="stop-color:#000000"/>
			</linearGradient>
			
				<rect x="316.9747009" y="507.740387" fill="url(#SVGID_00000042708769649927487960000008494876350879710127_)" width="617.8900757" height="423.1917114"/>
		</g>
	</mask>
	<g mask="url(#SVGID_00000110467940471753146990000014815408598612861874_)">
		<g id="Antarctica__SHAPE">
			<g opacity="0.1">
				<path d="M524.2826538,807.2908325c2.769043-1.7271118,4.8342285-3.0151367,7.6990967-4.802002
					c2.1679688,2.7977905,4.8099976,6.2434692,7.4971313,9.6532593c0.8016357,1.0170898,1.6315308,2.052063,2.6168823,2.8765259
					c4.6118164,3.8588867,5.5714722,7.2445679,4.1436157,11.6069336c4.1820679,5.1581421,7.9572144,9.4161377,11.2302856,14.0319824
					c1.4692383,2.0720825,0.576416,4.1304932-1.8776245,5.6920776c-2.7989502,1.7810669-5.5974121,3.8813477-7.6123047,6.4585571
					c-1.144043,1.4631958-0.8557129,4.1513062-0.9753418,6.3010254c-0.3726196,6.6904297-0.6320801,13.3873291-0.984375,21.1595459
					c-2.1602173-1.8186646-3.3323975-2.805481-5.8817139-4.9516602c0,2.8031006-0.6625366,4.9182129,0.1105347,5.9190063
					c4.137085,5.355957,1.2947388,10.3235474-1.3278198,14.4564819
					c-9.4129639,14.8339844-22.9766235,24.6311035-39.8608093,29.0825195
					c-7.515686,1.9815674-15.5198059,2.3867798-23.3405151,2.833374
					c-6.6801758,0.3815918-10.1689453-5.7588501-7.1723633-11.7624512c0.8786926-1.7606812,1.6779175-3.5929565,2.7940674-5.196167
					c2.2953186-3.296936-0.1505127-5.4157104-2.0583496-7.1395874c-0.9998779-0.9034424-3.2660217-0.527771-4.95755-0.5065918
					c-3.6983032,0.0464478-7.4271851,0.6018677-11.0844421,0.2781372c-5.1558228-0.4564819-9.8659973-0.5883789-14.416626,2.854187
					c-1.9970093,1.5106812-5.3815918,1.1782227-8.8452759,1.812439c-0.2531738,0.6600952-0.8190918,2.135376-1.5405579,4.0161133
					c-5.8285828,0.4508057-11.8414612,1.013916-17.8674011,1.305542c-1.3314209,0.0643921-3.0012817-0.4862671-4.0136414-1.3467407
					c-3.8509216-3.2728271-7.8252258-5.1414185-12.7799377-1.885376c-3.2490845-6.0457764-6.254303-11.6377563-9.3465576-17.3917236
					c-1.5391846,1.2242432-2.7772217,2.2090454-4.0152893,3.1938477c-0.4233398-0.1553955-0.8466797-0.31073-1.2700195-0.4661255
					c0.7723083-3.6864624,1.5445251-7.3729248,2.5236816-12.046875c-1.7442322,1.2557983-2.7599792,2.5598755-3.9237671,2.7098389
					c-2.7023926,0.3483887-5.8639221,0.9830933-8.1217651-0.0594482c-2.7451477-1.2677002-5.5483398-3.7265015-3.0183716-7.8474121
					c0.6528625-1.0633545,0.1376648-2.8282471,0.2182922-4.2675171c0.2075195-3.7037354,0.4980469-7.4036255,0.6519165-11.109375
					c0.0650024-1.5649414,0.4940186-3.7053223-0.3199158-4.609314c-2.8339539-3.147522-4.8565674-6.1705933-1.3325806-10.5167236
					c-4.9165955-0.2674561-6.8495483,6.0460205-12.1369324,2.7887573c-4.2005005-2.5877075-5.2153931-5.8098145-5.2565002-9.8829346
					c-0.4144897-0.3357544-0.6725769-0.7241211-0.913269-0.713562c-6.7395935,0.2952881-8.9941711-4.2980957-10.9474487-9.6253052
					c-2.2372131-6.1015625-5.6213074-11.8945312-3.5892639-19.7688599c1.3219299,1.5262451,2.9098816,2.510437,3.0862122,3.7040405
					c0.9906616,6.7058716,5.7637329,8.1813354,11.3422852,9.2715454c2.583252,0.5049438,4.8179932,2.7403564,7.4037476,3.3084717
					c3.6430054,0.8002319,7.4684143,0.7501221,11.2094421,1.1269531c1.4309387,0.144165,3.4786987-0.0537109,4.1606445,0.7877197
					c3.8005981,4.6893311,7.430542,2.2501831,11.1139832,0.1120605c5.3432922-3.1017456,10.7757263-6.0758057,15.9233704-9.4793701
					c2.9945679-1.9799805,3.2892761-5.2126465,2.8801575-8.7832642c-0.8404236-7.3345947-1.3461304-14.7180176-1.6581421-22.0953979
					c-0.0724487-1.7141724,1.1049805-3.5187988,1.8466797-5.2208252c0.9523621-2.1853638,1.9514771-4.3613892,3.1047058-6.444519
					c1.1268921-2.0356445,2.155426-4.2836304,3.7910461-5.8449097c3.1034241-2.9622192,6.6095581-5.5003662,10.8308716-8.9320679
					c6.9570923,1.5404053,14.1872559-2.2495117,21.8469238-4.5391235c3.1306458-0.935791,7.1806946,0.7022705,10.677002,1.6643066
					c3.2366333,0.890564,6.2411499,2.6090698,9.4598083,3.5968628c0.9281921,0.2849121,2.4772339-0.4169922,3.3399048-1.1449585
					c3.613678-3.0493164,8.6200867-3.718811,12.4848633-1.1134033c3.2058716,2.1611938,6.2064819,4.0531006,10.4021301,2.5749512
					c1.3070984-0.4605103,3.119751,0.6567993,4.7245483,0.8837891c4.7484131,0.6717529,9.4931641,1.5219116,14.2687073,1.8051758
					c4.6234436,0.274231,8.5691833,3.2794189,7.959198,7.6611938c-0.9072266,6.5178833,3.3661499,10.2401123,6.5717163,14.6762695
					c2.296875,3.1786499,6.5614014,5.5888672,3.1572266,10.8701782
					C521.9539185,800.3493042,523.5783691,803.4968872,524.2826538,807.2908325z"/>
			</g>
			<g>
				<g>
					<path fill="#FFD357" d="M523.2826538,806.2908325c2.769043-1.7271118,4.8342285-3.0151367,7.6990967-4.802002
						c2.1679688,2.7977905,4.8099976,6.2434692,7.4971313,9.6532593c0.8016357,1.0170898,1.6315308,2.052063,2.6168823,2.8765259
						c4.6118164,3.8588867,5.5714722,7.2445679,4.1436157,11.6069336
						c4.1820679,5.1581421,7.9572144,9.4161377,11.2302856,14.0319824c1.4692383,2.0720825,0.576416,4.1304932-1.8776245,5.6920776
						c-2.7989502,1.7810669-5.5974121,3.8813477-7.6123047,6.4585571c-1.144043,1.4631958-0.8557129,4.1513062-0.9753418,6.3010254
						c-0.3726196,6.6904297-0.6320801,13.3873291-0.984375,21.1595459c-2.1602173-1.8186646-3.3323975-2.805481-5.8817139-4.9516602
						c0,2.8031006-0.6625366,4.9182129,0.1105347,5.9190063c4.137085,5.355957,1.2947388,10.3235474-1.3278198,14.4564819
						c-9.4129639,14.8339844-22.9766235,24.6311035-39.8608093,29.0825195
						c-7.515686,1.9815674-15.5198059,2.3867798-23.3405151,2.833374
						c-6.6801758,0.3815918-10.1689453-5.7588501-7.1723633-11.7624512c0.8786926-1.7606812,1.6779175-3.5929565,2.7940674-5.196167
						c2.2953186-3.296936-0.1505127-5.4157104-2.0583496-7.1395874c-0.9998779-0.9034424-3.2660217-0.527771-4.95755-0.5065918
						c-3.6983032,0.0464478-7.4271851,0.6018677-11.0844421,0.2781372c-5.1558228-0.4564819-9.8659973-0.5883789-14.416626,2.854187
						c-1.9970093,1.5106812-5.3815918,1.1782227-8.8452759,1.812439c-0.2531738,0.6600952-0.8190918,2.135376-1.5405579,4.0161133
						c-5.8285828,0.4508057-11.8414612,1.013916-17.8674011,1.305542c-1.3314209,0.0643921-3.0012817-0.4862671-4.0136414-1.3467407
						c-3.8509216-3.2728271-7.8252258-5.1414185-12.7799377-1.885376
						c-3.2490845-6.0457764-6.254303-11.6377563-9.3465576-17.3917236
						c-1.5391846,1.2242432-2.7772217,2.2090454-4.0152893,3.1938477c-0.4233398-0.1553955-0.8466797-0.31073-1.2700195-0.4661255
						c0.7723083-3.6864624,1.5445251-7.3729248,2.5236816-12.046875c-1.7442322,1.2557983-2.7599792,2.5598755-3.9237671,2.7098389
						c-2.7023926,0.3483887-5.8639221,0.9830933-8.1217651-0.0594482c-2.7451477-1.2677002-5.5483398-3.7265015-3.0183716-7.8474121
						c0.6528625-1.0633545,0.1376648-2.8282471,0.2182922-4.2675171c0.2075195-3.7037354,0.4980469-7.4036255,0.6519165-11.109375
						c0.0650024-1.5649414,0.4940186-3.7053223-0.3199158-4.609314c-2.8339539-3.147522-4.8565674-6.1705933-1.3325806-10.5167236
						c-4.9165955-0.2674561-6.8495483,6.0460205-12.1369324,2.7887573
						c-4.2005005-2.5877075-5.2153931-5.8098145-5.2565002-9.8829346c-0.4144897-0.3357544-0.6725769-0.7241211-0.913269-0.713562
						c-6.7395935,0.2952881-8.9941711-4.2980957-10.9474487-9.6253052
						c-2.2372131-6.1015625-5.6213074-11.8945312-3.5892639-19.7688599c1.3219299,1.5262451,2.9098816,2.510437,3.0862122,3.7040405
						c0.9906616,6.7058716,5.7637329,8.1813354,11.3422852,9.2715454c2.583252,0.5049438,4.8179932,2.7403564,7.4037476,3.3084717
						c3.6430054,0.8002319,7.4684143,0.7501221,11.2094421,1.1269531c1.4309387,0.144165,3.4786987-0.0537109,4.1606445,0.7877197
						c3.8005981,4.6893311,7.430542,2.2501831,11.1139832,0.1120605c5.3432922-3.1017456,10.7757263-6.0758057,15.9233704-9.4793701
						c2.9945679-1.9799805,3.2892761-5.2126465,2.8801575-8.7832642
						c-0.8404236-7.3345947-1.3461304-14.7180176-1.6581421-22.0953979
						c-0.0724487-1.7141724,1.1049805-3.5187988,1.8466797-5.2208252c0.9523621-2.1853638,1.9514771-4.3613892,3.1047058-6.444519
						c1.1268921-2.0356445,2.155426-4.2836304,3.7910461-5.8449097c3.1034241-2.9622192,6.6095581-5.5003662,10.8308716-8.9320679
						c6.9570923,1.5404053,14.1872559-2.2495117,21.8469238-4.5391235c3.1306458-0.935791,7.1806946,0.7022705,10.677002,1.6643066
						c3.2366333,0.890564,6.2411499,2.6090698,9.4598083,3.5968628c0.9281921,0.2849121,2.4772339-0.4169922,3.3399048-1.1449585
						c3.613678-3.0493164,8.6200867-3.718811,12.4848633-1.1134033c3.2058716,2.1611938,6.2064819,4.0531006,10.4021301,2.5749512
						c1.3070984-0.4605103,3.119751,0.6567993,4.7245483,0.8837891c4.7484131,0.6717529,9.4931641,1.5219116,14.2687073,1.8051758
						c4.6234436,0.274231,8.5691833,3.2794189,7.959198,7.6611938c-0.9072266,6.5178833,3.3661499,10.2401123,6.5717163,14.6762695
						c2.296875,3.1786499,6.5614014,5.5888672,3.1572266,10.8701782
						C520.9539185,799.3493042,522.5783691,802.4968872,523.2826538,806.2908325z"/>
				</g>
			</g>
		</g>
		<g>
			<text transform="matrix(0.99769 0 0 1 410.5009766 846.0107422)" font-family="'MyriadPro-Regular'" font-size="24px">Antarctica </text>
		</g>
		<g id="Australia_SHAPE">
			<g opacity="0.1">
				<path d="M741.4321899,538.8175659c1.9317627,5.1674805,3.8447876,10.3421021,5.8108521,15.49646
					c0.399353,1.046936,0.7347412,2.4021606,1.5474854,2.9625244c7.2771606,5.0172119,8.4841309,12.848999,9.6070557,20.6535034
					c0.5830688,4.0527344,2.2402344,6.9645386,6.1390991,8.5741577c5.2317505,2.1599731,7.4492188,6.2437134,9.0602417,11.7404175
					c1.4555054,4.9661865,4.9820557,9.5393677,8.3425903,13.6759033c4.8146973,5.9265747,7.0110474,12.1931152,6.1706543,19.8771362
					c-0.7927246,7.2490845,1.0842285,14.8762207-3.100708,21.5977173c-1.8842773,3.0264282-3.937439,5.9744873-6.1722412,8.7491455
					c-5.9216309,7.3521729-13.234436,13.871582-13.456604,25.0969849
					c-9.0740356,0.5771484-17.8551636,1.8018799-26.5737305,1.4533691
					c-5.7024536-0.2279053-11.3527832-2.6102295-16.9331665-4.3312988c-1.0696411-0.3299561-2.2628784-1.987793-2.4501953-3.182373
					c-1.2802734-8.1643066-7.5953369-11.7330322-13.6800537-15.5610962c-2.605835-1.6394043-5.9289551-2.7212524-7.690918-5.0113525
					c-5.5827637-7.2564697-13.6967773-9.0864258-21.6860352-9.7680054c-4.4433594-0.3790894-9.2342529,2.59198-13.7669067,4.3206177
					c-2.2719727,0.8665161-4.4246826,2.1735229-6.4431152,3.5570679c-5.3936768,3.6969604-11.3043823,5.4949951-17.7799683,6.416687
					c-4.5508423,0.6477051-9.3326416,2.1102905-13.1962891,4.5213013c-4.44104,2.7713623-8.2122192,2.0432129-11.2174683,0.9362183
					c-1.1744385-7.0268555-1.984314-13.3429565-3.3797607-19.5262451c-0.5909424-2.6187134-2.0940552-5.1973877-3.7282104-7.3846436
					c-7.9986572-10.7054443-11.4283447-22.7177124-10.4519043-35.9593506c0.1323242-1.7942505,1.279541-4.1870728,2.71698-5.0992432
					c8.2064209-5.2080688,15.4720459-12.3081665,25.8283691-13.4621582
					c1.0303955-0.1149292,2.2562256-1.2254028,2.8270874-2.2045288c1.647583-2.8255615,3.5599976-5.6796875,4.3439941-8.7827148
					c1.0716553-4.2410889,3.6260376-6.5691528,7.1158447-8.7550659c2.3647461-1.4813232,4.0111084-4.1062622,6.0032349-6.1963501
					c2.3344727-2.4494019,4.4099121-5.2758789,7.1171875-7.2068481c3.416687-2.4370117,7.2513428-2.3068848,9.9080811,1.4216309
					c1.8338013,2.5735474,4.140686,2.9154053,6.3232422,1.5482178c1.4421997-0.9034424,2.7264404-2.9938354,2.9763184-4.7140503
					c1.0565186-7.2738647,8.4754028-14.3933105,15.7740479-14.4896851c1.0197144-0.0133667,2.2543335,0.5923462,3.0419922,1.2999878
					c4.1019897,3.68573,8.668457,3.7075806,13.1644897,1.3413696c2.9622803-1.55896,5.4642334-1.0223999,6.5732422,1.4876709
					c0.7606201,1.7216187,0.0007324,4.499939-0.8721313,6.4492188c-0.7556152,1.6873169-2.6504517,2.8505859-4.0012207,4.2838745
					c-3.4649658,3.6762695-2.9029541,7.303772,1.8094482,9.2398682c5.4260864,2.229248,10.9082642,3.9642334,14.8843384,8.897644
					c1.1010132,1.3660889,5.7758789,1.9623413,6.6466675,0.9813232c2.3544922-2.6524048,4.3339844-6.1848755,5.026001-9.6559448
					c1.2659302-6.3501587,1.2157593-12.9561157,2.3126221-19.3522949c0.3901367-2.2753296,2.5187988-4.2510376,3.8538818-6.3635864
					C740.3284912,538.53302,740.8803711,538.675354,741.4321899,538.8175659z"/>
			</g>
			<g>
				<path fill="#FFD357" d="M740.4321899,537.8175659c1.9317627,5.1674805,3.8447876,10.3421021,5.8108521,15.49646
					c0.399353,1.046936,0.7347412,2.4021606,1.5474854,2.9625244c7.2771606,5.0172119,8.4841309,12.848999,9.6070557,20.6535034
					c0.5830688,4.0527344,2.2402344,6.9645386,6.1390991,8.5741577c5.2317505,2.1599731,7.4492188,6.2437134,9.0602417,11.7404175
					c1.4555054,4.9661865,4.9820557,9.5393677,8.3425903,13.6759033c4.8146973,5.9265747,7.0110474,12.1931152,6.1706543,19.8771362
					c-0.7927246,7.2490845,1.0842285,14.8762207-3.100708,21.5977173c-1.8842773,3.0264282-3.937439,5.9744873-6.1722412,8.7491455
					c-5.9216309,7.3521729-13.234436,13.871582-13.456604,25.0969849
					c-9.0740356,0.5771484-17.8551636,1.8018799-26.5737305,1.4533691
					c-5.7024536-0.2279053-11.3527832-2.6102295-16.9331665-4.3312988c-1.0696411-0.3299561-2.2628784-1.987793-2.4501953-3.182373
					c-1.2802734-8.1643066-7.5953369-11.7330322-13.6800537-15.5610962c-2.605835-1.6394043-5.9289551-2.7212524-7.690918-5.0113525
					c-5.5827637-7.2564697-13.6967773-9.0864258-21.6860352-9.7680054c-4.4433594-0.3790894-9.2342529,2.59198-13.7669067,4.3206177
					c-2.2719727,0.8665161-4.4246826,2.1735229-6.4431152,3.5570679c-5.3936768,3.6969604-11.3043823,5.4949951-17.7799683,6.416687
					c-4.5508423,0.6477051-9.3326416,2.1102905-13.1962891,4.5213013c-4.44104,2.7713623-8.2122192,2.0432129-11.2174683,0.9362183
					c-1.1744385-7.0268555-1.984314-13.3429565-3.3797607-19.5262451c-0.5909424-2.6187134-2.0940552-5.1973877-3.7282104-7.3846436
					c-7.9986572-10.7054443-11.4283447-22.7177124-10.4519043-35.9593506c0.1323242-1.7942505,1.279541-4.1870728,2.71698-5.0992432
					c8.2064209-5.2080688,15.4720459-12.3081665,25.8283691-13.4621582
					c1.0303955-0.1149292,2.2562256-1.2254028,2.8270874-2.2045288c1.647583-2.8255615,3.5599976-5.6796875,4.3439941-8.7827148
					c1.0716553-4.2410889,3.6260376-6.5691528,7.1158447-8.7550659c2.3647461-1.4813232,4.0111084-4.1062622,6.0032349-6.1963501
					c2.3344727-2.4494019,4.4099121-5.2758789,7.1171875-7.2068481c3.416687-2.4370117,7.2513428-2.3068848,9.9080811,1.4216309
					c1.8338013,2.5735474,4.140686,2.9154053,6.3232422,1.5482178c1.4421997-0.9034424,2.7264404-2.9938354,2.9763184-4.7140503
					c1.0565186-7.2738647,8.4754028-14.3933105,15.7740479-14.4896851c1.0197144-0.0133667,2.2543335,0.5923462,3.0419922,1.2999878
					c4.1019897,3.68573,8.668457,3.7075806,13.1644897,1.3413696c2.9622803-1.55896,5.4642334-1.0223999,6.5732422,1.4876709
					c0.7606201,1.7216187,0.0007324,4.499939-0.8721313,6.4492188c-0.7556152,1.6873169-2.6504517,2.8505859-4.0012207,4.2838745
					c-3.4649658,3.6762695-2.9029541,7.303772,1.8094482,9.2398682c5.4260864,2.229248,10.9082642,3.9642334,14.8843384,8.897644
					c1.1010132,1.3660889,5.7758789,1.9623413,6.6466675,0.9813232c2.3544922-2.6524048,4.3339844-6.1848755,5.026001-9.6559448
					c1.2659302-6.3501587,1.2157593-12.9561157,2.3126221-19.3522949c0.3901367-2.2753296,2.5187988-4.2510376,3.8538818-6.3635864
					C739.3284912,537.53302,739.8803711,537.675354,740.4321899,537.8175659z"/>
			</g>
		</g>
		<g>
			<text transform="matrix(0.99769 0 0 1 650.9492188 616.4960938)" font-family="'MyriadPro-Regular'" font-size="24px">Australia </text>
		</g>
	</g>
</g>
</svg>
